<svg width="789" height="684" viewBox="0 0 789 684" fill="none" xmlns="http://www.w3.org/2000/svg">
<g clip-path="url(#clip0_293_73)">
<mask id="path-3-inside-1_293_73" fill="white">
<path d="M-25.6779 -11.8631H26.8814V40.6962H-25.6779V-11.8631Z"/>
</mask>
<path d="M26.8814 40.6962V41.2437H27.4289V40.6962H26.8814ZM26.8814 -11.8631H26.3339V40.6962H26.8814H27.4289V-11.8631H26.8814ZM26.8814 40.6962V40.1487H-25.6779V40.6962V41.2437H26.8814V40.6962Z" fill="#BA6262" mask="url(#path-3-inside-1_293_73)"/>
<mask id="path-5-inside-2_293_73" fill="white">
<path d="M26.8814 -11.8631H79.4407V40.6962H26.8814V-11.8631Z"/>
</mask>
<path d="M79.4407 40.6962V41.2437H79.9882V40.6962H79.4407ZM79.4407 -11.8631H78.8932V40.6962H79.4407H79.9882V-11.8631H79.4407ZM79.4407 40.6962V40.1487H26.8814V40.6962V41.2437H79.4407V40.6962Z" fill="#BA6262" mask="url(#path-5-inside-2_293_73)"/>
<mask id="path-7-inside-3_293_73" fill="white">
<path d="M79.4407 -11.8631H132V40.6962H79.4407V-11.8631Z"/>
</mask>
<path d="M132 40.6962V41.2437H132.548V40.6962H132ZM132 -11.8631H131.453V40.6962H132H132.548V-11.8631H132ZM132 40.6962V40.1487H79.4407V40.6962V41.2437H132V40.6962Z" fill="#BA6262" mask="url(#path-7-inside-3_293_73)"/>
<mask id="path-9-inside-4_293_73" fill="white">
<path d="M132 -11.8631H184.559V40.6962H132V-11.8631Z"/>
</mask>
<path d="M184.559 40.6962V41.2437H185.107V40.6962H184.559ZM184.559 -11.8631H184.012V40.6962H184.559H185.107V-11.8631H184.559ZM184.559 40.6962V40.1487H132V40.6962V41.2437H184.559V40.6962Z" fill="#BA6262" mask="url(#path-9-inside-4_293_73)"/>
<mask id="path-11-inside-5_293_73" fill="white">
<path d="M184.559 -11.8631H237.119V40.6962H184.559V-11.8631Z"/>
</mask>
<path d="M237.119 40.6962V41.2437H237.666V40.6962H237.119ZM237.119 -11.8631H236.571V40.6962H237.119H237.666V-11.8631H237.119ZM237.119 40.6962V40.1487H184.559V40.6962V41.2437H237.119V40.6962Z" fill="#BA6262" mask="url(#path-11-inside-5_293_73)"/>
<mask id="path-13-inside-6_293_73" fill="white">
<path d="M237.119 -11.8631H289.678V40.6962H237.119V-11.8631Z"/>
</mask>
<path d="M289.678 40.6962V41.2437H290.225V40.6962H289.678ZM289.678 -11.8631H289.13V40.6962H289.678H290.225V-11.8631H289.678ZM289.678 40.6962V40.1487H237.119V40.6962V41.2437H289.678V40.6962Z" fill="#BA6262" mask="url(#path-13-inside-6_293_73)"/>
<mask id="path-15-inside-7_293_73" fill="white">
<path d="M289.678 -11.8631H342.237V40.6962H289.678V-11.8631Z"/>
</mask>
<path d="M342.237 40.6962V41.2437H342.785V40.6962H342.237ZM342.237 -11.8631H341.69V40.6962H342.237H342.785V-11.8631H342.237ZM342.237 40.6962V40.1487H289.678V40.6962V41.2437H342.237V40.6962Z" fill="#BA6262" mask="url(#path-15-inside-7_293_73)"/>
<mask id="path-17-inside-8_293_73" fill="white">
<path d="M342.237 -11.8631H394.796V40.6962H342.237V-11.8631Z"/>
</mask>
<path d="M394.796 40.6962V41.2437H395.344V40.6962H394.796ZM394.796 -11.8631H394.249V40.6962H394.796H395.344V-11.8631H394.796ZM394.796 40.6962V40.1487H342.237V40.6962V41.2437H394.796V40.6962Z" fill="#BA6262" mask="url(#path-17-inside-8_293_73)"/>
<mask id="path-19-inside-9_293_73" fill="white">
<path d="M394.796 -11.8631H447.356V40.6962H394.796V-11.8631Z"/>
</mask>
<path d="M447.356 40.6962V41.2437H447.903V40.6962H447.356ZM447.356 -11.8631H446.808V40.6962H447.356H447.903V-11.8631H447.356ZM447.356 40.6962V40.1487H394.796V40.6962V41.2437H447.356V40.6962Z" fill="#BA6262" mask="url(#path-19-inside-9_293_73)"/>
<mask id="path-21-inside-10_293_73" fill="white">
<path d="M447.356 -11.8631H499.915V40.6962H447.356V-11.8631Z"/>
</mask>
<path d="M499.915 40.6962V41.2437H500.463V40.6962H499.915ZM499.915 -11.8631H499.368V40.6962H499.915H500.463V-11.8631H499.915ZM499.915 40.6962V40.1487H447.356V40.6962V41.2437H499.915V40.6962Z" fill="#BA6262" mask="url(#path-21-inside-10_293_73)"/>
<mask id="path-23-inside-11_293_73" fill="white">
<path d="M499.915 -11.8631H552.474V40.6962H499.915V-11.8631Z"/>
</mask>
<path d="M552.474 40.6962V41.2437H553.022V40.6962H552.474ZM552.474 -11.8631H551.927V40.6962H552.474H553.022V-11.8631H552.474ZM552.474 40.6962V40.1487H499.915V40.6962V41.2437H552.474V40.6962Z" fill="#BA6262" mask="url(#path-23-inside-11_293_73)"/>
<mask id="path-25-inside-12_293_73" fill="white">
<path d="M552.474 -11.8631H605.034V40.6962H552.474V-11.8631Z"/>
</mask>
<path d="M605.034 40.6962V41.2437H605.581V40.6962H605.034ZM605.034 -11.8631H604.486V40.6962H605.034H605.581V-11.8631H605.034ZM605.034 40.6962V40.1487H552.474V40.6962V41.2437H605.034V40.6962Z" fill="#BA6262" mask="url(#path-25-inside-12_293_73)"/>
<mask id="path-27-inside-13_293_73" fill="white">
<path d="M605.034 -11.8631H657.593V40.6962H605.034V-11.8631Z"/>
</mask>
<path d="M657.593 40.6962V41.2437H658.14V40.6962H657.593ZM657.593 -11.8631H657.045V40.6962H657.593H658.14V-11.8631H657.593ZM657.593 40.6962V40.1487H605.034V40.6962V41.2437H657.593V40.6962Z" fill="#BA6262" mask="url(#path-27-inside-13_293_73)"/>
<mask id="path-29-inside-14_293_73" fill="white">
<path d="M657.593 -11.8631H710.152V40.6962H657.593V-11.8631Z"/>
</mask>
<path d="M710.152 40.6962V41.2437H710.7V40.6962H710.152ZM710.152 -11.8631H709.605V40.6962H710.152H710.7V-11.8631H710.152ZM710.152 40.6962V40.1487H657.593V40.6962V41.2437H710.152V40.6962Z" fill="#BA6262" mask="url(#path-29-inside-14_293_73)"/>
<mask id="path-31-inside-15_293_73" fill="white">
<path d="M710.152 -11.8631H762.712V40.6962H710.152V-11.8631Z"/>
</mask>
<path d="M762.712 40.6962V41.2437H763.259V40.6962H762.712ZM762.712 -11.8631H762.164V40.6962H762.712H763.259V-11.8631H762.712ZM762.712 40.6962V40.1487H710.152V40.6962V41.2437H762.712V40.6962Z" fill="#BA6262" mask="url(#path-31-inside-15_293_73)"/>
<mask id="path-33-inside-16_293_73" fill="white">
<path d="M762.711 -11.8631H815.271V40.6962H762.711V-11.8631Z"/>
</mask>
<path d="M815.271 40.6962V41.2437H815.818V40.6962H815.271ZM815.271 -11.8631H814.723V40.6962H815.271H815.818V-11.8631H815.271ZM815.271 40.6962V40.1487H762.711V40.6962V41.2437H815.271V40.6962Z" fill="#BA6262" mask="url(#path-33-inside-16_293_73)"/>
<mask id="path-35-inside-17_293_73" fill="white">
<path d="M-25.6779 40.6962H26.8814V93.2555H-25.6779V40.6962Z"/>
</mask>
<path d="M26.8814 93.2555V93.803H27.4289V93.2555H26.8814ZM26.8814 40.6962H26.3339V93.2555H26.8814H27.4289V40.6962H26.8814ZM26.8814 93.2555V92.708H-25.6779V93.2555V93.803H26.8814V93.2555Z" fill="#BA6262" mask="url(#path-35-inside-17_293_73)"/>
<mask id="path-37-inside-18_293_73" fill="white">
<path d="M26.8814 40.6962H79.4407V93.2555H26.8814V40.6962Z"/>
</mask>
<path d="M79.4407 93.2555V93.803H79.9882V93.2555H79.4407ZM79.4407 40.6962H78.8932V93.2555H79.4407H79.9882V40.6962H79.4407ZM79.4407 93.2555V92.708H26.8814V93.2555V93.803H79.4407V93.2555Z" fill="#BA6262" mask="url(#path-37-inside-18_293_73)"/>
<mask id="path-39-inside-19_293_73" fill="white">
<path d="M79.4407 40.6962H132V93.2555H79.4407V40.6962Z"/>
</mask>
<path d="M132 93.2555V93.803H132.548V93.2555H132ZM132 40.6962H131.453V93.2555H132H132.548V40.6962H132ZM132 93.2555V92.708H79.4407V93.2555V93.803H132V93.2555Z" fill="#BA6262" mask="url(#path-39-inside-19_293_73)"/>
<mask id="path-41-inside-20_293_73" fill="white">
<path d="M132 40.6962H184.559V93.2555H132V40.6962Z"/>
</mask>
<path d="M132 40.6962H184.559V93.2555H132V40.6962Z" fill="white" fill-opacity="0.09"/>
<path d="M184.559 93.2555V93.803H185.107V93.2555H184.559ZM184.559 40.6962H184.012V93.2555H184.559H185.107V40.6962H184.559ZM184.559 93.2555V92.708H132V93.2555V93.803H184.559V93.2555Z" fill="#BA6262" mask="url(#path-41-inside-20_293_73)"/>
<mask id="path-43-inside-21_293_73" fill="white">
<path d="M184.559 40.6962H237.119V93.2555H184.559V40.6962Z"/>
</mask>
<path d="M237.119 93.2555V93.803H237.666V93.2555H237.119ZM237.119 40.6962H236.571V93.2555H237.119H237.666V40.6962H237.119ZM237.119 93.2555V92.708H184.559V93.2555V93.803H237.119V93.2555Z" fill="#BA6262" mask="url(#path-43-inside-21_293_73)"/>
<mask id="path-45-inside-22_293_73" fill="white">
<path d="M237.119 40.6962H289.678V93.2555H237.119V40.6962Z"/>
</mask>
<path d="M289.678 93.2555V93.803H290.225V93.2555H289.678ZM289.678 40.6962H289.13V93.2555H289.678H290.225V40.6962H289.678ZM289.678 93.2555V92.708H237.119V93.2555V93.803H289.678V93.2555Z" fill="#BA6262" mask="url(#path-45-inside-22_293_73)"/>
<mask id="path-47-inside-23_293_73" fill="white">
<path d="M289.678 40.6962H342.237V93.2555H289.678V40.6962Z"/>
</mask>
<path d="M342.237 93.2555V93.803H342.785V93.2555H342.237ZM342.237 40.6962H341.69V93.2555H342.237H342.785V40.6962H342.237ZM342.237 93.2555V92.708H289.678V93.2555V93.803H342.237V93.2555Z" fill="#BA6262" mask="url(#path-47-inside-23_293_73)"/>
<mask id="path-49-inside-24_293_73" fill="white">
<path d="M342.237 40.6962H394.796V93.2555H342.237V40.6962Z"/>
</mask>
<path d="M394.796 93.2555V93.803H395.344V93.2555H394.796ZM394.796 40.6962H394.249V93.2555H394.796H395.344V40.6962H394.796ZM394.796 93.2555V92.708H342.237V93.2555V93.803H394.796V93.2555Z" fill="#BA6262" mask="url(#path-49-inside-24_293_73)"/>
<mask id="path-51-inside-25_293_73" fill="white">
<path d="M394.796 40.6962H447.356V93.2555H394.796V40.6962Z"/>
</mask>
<path d="M447.356 93.2555V93.803H447.903V93.2555H447.356ZM447.356 40.6962H446.808V93.2555H447.356H447.903V40.6962H447.356ZM447.356 93.2555V92.708H394.796V93.2555V93.803H447.356V93.2555Z" fill="#BA6262" mask="url(#path-51-inside-25_293_73)"/>
<mask id="path-53-inside-26_293_73" fill="white">
<path d="M447.356 40.6962H499.915V93.2555H447.356V40.6962Z"/>
</mask>
<path d="M499.915 93.2555V93.803H500.463V93.2555H499.915ZM499.915 40.6962H499.368V93.2555H499.915H500.463V40.6962H499.915ZM499.915 93.2555V92.708H447.356V93.2555V93.803H499.915V93.2555Z" fill="#BA6262" mask="url(#path-53-inside-26_293_73)"/>
<mask id="path-55-inside-27_293_73" fill="white">
<path d="M499.915 40.6962H552.474V93.2555H499.915V40.6962Z"/>
</mask>
<path d="M552.474 93.2555V93.803H553.022V93.2555H552.474ZM552.474 40.6962H551.927V93.2555H552.474H553.022V40.6962H552.474ZM552.474 93.2555V92.708H499.915V93.2555V93.803H552.474V93.2555Z" fill="#BA6262" mask="url(#path-55-inside-27_293_73)"/>
<mask id="path-57-inside-28_293_73" fill="white">
<path d="M552.474 40.6962H605.034V93.2555H552.474V40.6962Z"/>
</mask>
<path d="M605.034 93.2555V93.803H605.581V93.2555H605.034ZM605.034 40.6962H604.486V93.2555H605.034H605.581V40.6962H605.034ZM605.034 93.2555V92.708H552.474V93.2555V93.803H605.034V93.2555Z" fill="#BA6262" mask="url(#path-57-inside-28_293_73)"/>
<mask id="path-59-inside-29_293_73" fill="white">
<path d="M605.034 40.6962H657.593V93.2555H605.034V40.6962Z"/>
</mask>
<path d="M605.034 40.6962H657.593V93.2555H605.034V40.6962Z" fill="white" fill-opacity="0.09"/>
<path d="M657.593 93.2555V93.803H658.14V93.2555H657.593ZM657.593 40.6962H657.045V93.2555H657.593H658.14V40.6962H657.593ZM657.593 93.2555V92.708H605.034V93.2555V93.803H657.593V93.2555Z" fill="#BA6262" mask="url(#path-59-inside-29_293_73)"/>
<mask id="path-61-inside-30_293_73" fill="white">
<path d="M657.593 40.6962H710.152V93.2555H657.593V40.6962Z"/>
</mask>
<path d="M710.152 93.2555V93.803H710.7V93.2555H710.152ZM710.152 40.6962H709.605V93.2555H710.152H710.7V40.6962H710.152ZM710.152 93.2555V92.708H657.593V93.2555V93.803H710.152V93.2555Z" fill="#BA6262" mask="url(#path-61-inside-30_293_73)"/>
<mask id="path-63-inside-31_293_73" fill="white">
<path d="M710.152 40.6962H762.712V93.2555H710.152V40.6962Z"/>
</mask>
<path d="M762.712 93.2555V93.803H763.259V93.2555H762.712ZM762.712 40.6962H762.164V93.2555H762.712H763.259V40.6962H762.712ZM762.712 93.2555V92.708H710.152V93.2555V93.803H762.712V93.2555Z" fill="#BA6262" mask="url(#path-63-inside-31_293_73)"/>
<mask id="path-65-inside-32_293_73" fill="white">
<path d="M762.711 40.6962H815.271V93.2555H762.711V40.6962Z"/>
</mask>
<path d="M815.271 93.2555V93.803H815.818V93.2555H815.271ZM815.271 40.6962H814.723V93.2555H815.271H815.818V40.6962H815.271ZM815.271 93.2555V92.708H762.711V93.2555V93.803H815.271V93.2555Z" fill="#BA6262" mask="url(#path-65-inside-32_293_73)"/>
<mask id="path-67-inside-33_293_73" fill="white">
<path d="M-25.6779 93.2555H26.8814V145.815H-25.6779V93.2555Z"/>
</mask>
<path d="M26.8814 145.815V146.362H27.4289V145.815H26.8814ZM26.8814 93.2555H26.3339V145.815H26.8814H27.4289V93.2555H26.8814ZM26.8814 145.815V145.267H-25.6779V145.815V146.362H26.8814V145.815Z" fill="#BA6262" mask="url(#path-67-inside-33_293_73)"/>
<mask id="path-69-inside-34_293_73" fill="white">
<path d="M26.8814 93.2555H79.4407V145.815H26.8814V93.2555Z"/>
</mask>
<path d="M79.4407 145.815V146.362H79.9882V145.815H79.4407ZM79.4407 93.2555H78.8932V145.815H79.4407H79.9882V93.2555H79.4407ZM79.4407 145.815V145.267H26.8814V145.815V146.362H79.4407V145.815Z" fill="#BA6262" mask="url(#path-69-inside-34_293_73)"/>
<mask id="path-71-inside-35_293_73" fill="white">
<path d="M79.4407 93.2555H132V145.815H79.4407V93.2555Z"/>
</mask>
<path d="M132 145.815V146.362H132.548V145.815H132ZM132 93.2555H131.453V145.815H132H132.548V93.2555H132ZM132 145.815V145.267H79.4407V145.815V146.362H132V145.815Z" fill="#BA6262" mask="url(#path-71-inside-35_293_73)"/>
<mask id="path-73-inside-36_293_73" fill="white">
<path d="M132 93.2555H184.559V145.815H132V93.2555Z"/>
</mask>
<path d="M184.559 145.815V146.362H185.107V145.815H184.559ZM184.559 93.2555H184.012V145.815H184.559H185.107V93.2555H184.559ZM184.559 145.815V145.267H132V145.815V146.362H184.559V145.815Z" fill="#BA6262" mask="url(#path-73-inside-36_293_73)"/>
<mask id="path-75-inside-37_293_73" fill="white">
<path d="M184.559 93.2555H237.119V145.815H184.559V93.2555Z"/>
</mask>
<path d="M237.119 145.815V146.362H237.666V145.815H237.119ZM237.119 93.2555H236.571V145.815H237.119H237.666V93.2555H237.119ZM237.119 145.815V145.267H184.559V145.815V146.362H237.119V145.815Z" fill="#BA6262" mask="url(#path-75-inside-37_293_73)"/>
<mask id="path-77-inside-38_293_73" fill="white">
<path d="M237.119 93.2555H289.678V145.815H237.119V93.2555Z"/>
</mask>
<path d="M237.119 93.2555H289.678V145.815H237.119V93.2555Z" fill="white" fill-opacity="0.09"/>
<path d="M289.678 145.815V146.362H290.225V145.815H289.678ZM289.678 93.2555H289.13V145.815H289.678H290.225V93.2555H289.678ZM289.678 145.815V145.267H237.119V145.815V146.362H289.678V145.815Z" fill="#BA6262" mask="url(#path-77-inside-38_293_73)"/>
<mask id="path-79-inside-39_293_73" fill="white">
<path d="M289.678 93.2555H342.237V145.815H289.678V93.2555Z"/>
</mask>
<path d="M342.237 145.815V146.362H342.785V145.815H342.237ZM342.237 93.2555H341.69V145.815H342.237H342.785V93.2555H342.237ZM342.237 145.815V145.267H289.678V145.815V146.362H342.237V145.815Z" fill="#BA6262" mask="url(#path-79-inside-39_293_73)"/>
<mask id="path-81-inside-40_293_73" fill="white">
<path d="M342.237 93.2555H394.796V145.815H342.237V93.2555Z"/>
</mask>
<path d="M394.796 145.815V146.362H395.344V145.815H394.796ZM394.796 93.2555H394.249V145.815H394.796H395.344V93.2555H394.796ZM394.796 145.815V145.267H342.237V145.815V146.362H394.796V145.815Z" fill="#BA6262" mask="url(#path-81-inside-40_293_73)"/>
<mask id="path-83-inside-41_293_73" fill="white">
<path d="M394.796 93.2555H447.356V145.815H394.796V93.2555Z"/>
</mask>
<path d="M447.356 145.815V146.362H447.903V145.815H447.356ZM447.356 93.2555H446.808V145.815H447.356H447.903V93.2555H447.356ZM447.356 145.815V145.267H394.796V145.815V146.362H447.356V145.815Z" fill="#BA6262" mask="url(#path-83-inside-41_293_73)"/>
<mask id="path-85-inside-42_293_73" fill="white">
<path d="M447.356 93.2555H499.915V145.815H447.356V93.2555Z"/>
</mask>
<path d="M447.356 93.2555H499.915V145.815H447.356V93.2555Z" fill="white" fill-opacity="0.09"/>
<path d="M499.915 145.815V146.362H500.463V145.815H499.915ZM499.915 93.2555H499.368V145.815H499.915H500.463V93.2555H499.915ZM499.915 145.815V145.267H447.356V145.815V146.362H499.915V145.815Z" fill="#BA6262" mask="url(#path-85-inside-42_293_73)"/>
<mask id="path-87-inside-43_293_73" fill="white">
<path d="M499.915 93.2555H552.474V145.815H499.915V93.2555Z"/>
</mask>
<path d="M552.474 145.815V146.362H553.022V145.815H552.474ZM552.474 93.2555H551.927V145.815H552.474H553.022V93.2555H552.474ZM552.474 145.815V145.267H499.915V145.815V146.362H552.474V145.815Z" fill="#BA6262" mask="url(#path-87-inside-43_293_73)"/>
<mask id="path-89-inside-44_293_73" fill="white">
<path d="M552.474 93.2555H605.034V145.815H552.474V93.2555Z"/>
</mask>
<path d="M605.034 145.815V146.362H605.581V145.815H605.034ZM605.034 93.2555H604.486V145.815H605.034H605.581V93.2555H605.034ZM605.034 145.815V145.267H552.474V145.815V146.362H605.034V145.815Z" fill="#BA6262" mask="url(#path-89-inside-44_293_73)"/>
<mask id="path-91-inside-45_293_73" fill="white">
<path d="M605.034 93.2555H657.593V145.815H605.034V93.2555Z"/>
</mask>
<path d="M657.593 145.815V146.362H658.14V145.815H657.593ZM657.593 93.2555H657.045V145.815H657.593H658.14V93.2555H657.593ZM657.593 145.815V145.267H605.034V145.815V146.362H657.593V145.815Z" fill="#BA6262" mask="url(#path-91-inside-45_293_73)"/>
<mask id="path-93-inside-46_293_73" fill="white">
<path d="M657.593 93.2555H710.152V145.815H657.593V93.2555Z"/>
</mask>
<path d="M710.152 145.815V146.362H710.7V145.815H710.152ZM710.152 93.2555H709.605V145.815H710.152H710.7V93.2555H710.152ZM710.152 145.815V145.267H657.593V145.815V146.362H710.152V145.815Z" fill="#BA6262" mask="url(#path-93-inside-46_293_73)"/>
<mask id="path-95-inside-47_293_73" fill="white">
<path d="M710.152 93.2555H762.712V145.815H710.152V93.2555Z"/>
</mask>
<path d="M762.712 145.815V146.362H763.259V145.815H762.712ZM762.712 93.2555H762.164V145.815H762.712H763.259V93.2555H762.712ZM762.712 145.815V145.267H710.152V145.815V146.362H762.712V145.815Z" fill="#BA6262" mask="url(#path-95-inside-47_293_73)"/>
<mask id="path-97-inside-48_293_73" fill="white">
<path d="M762.711 93.2555H815.271V145.815H762.711V93.2555Z"/>
</mask>
<path d="M815.271 145.815V146.362H815.818V145.815H815.271ZM815.271 93.2555H814.723V145.815H815.271H815.818V93.2555H815.271ZM815.271 145.815V145.267H762.711V145.815V146.362H815.271V145.815Z" fill="#BA6262" mask="url(#path-97-inside-48_293_73)"/>
<mask id="path-99-inside-49_293_73" fill="white">
<path d="M-25.6779 145.815H26.8814V198.374H-25.6779V145.815Z"/>
</mask>
<path d="M-25.6779 145.815H26.8814V198.374H-25.6779V145.815Z" fill="white" fill-opacity="0.09"/>
<path d="M26.8814 198.374V198.922H27.4289V198.374H26.8814ZM26.8814 145.815H26.3339V198.374H26.8814H27.4289V145.815H26.8814ZM26.8814 198.374V197.827H-25.6779V198.374V198.922H26.8814V198.374Z" fill="#BA6262" mask="url(#path-99-inside-49_293_73)"/>
<mask id="path-101-inside-50_293_73" fill="white">
<path d="M26.8814 145.815H79.4407V198.374H26.8814V145.815Z"/>
</mask>
<path d="M79.4407 198.374V198.922H79.9882V198.374H79.4407ZM79.4407 145.815H78.8932V198.374H79.4407H79.9882V145.815H79.4407ZM79.4407 198.374V197.827H26.8814V198.374V198.922H79.4407V198.374Z" fill="#BA6262" mask="url(#path-101-inside-50_293_73)"/>
<mask id="path-103-inside-51_293_73" fill="white">
<path d="M79.4407 145.815H132V198.374H79.4407V145.815Z"/>
</mask>
<path d="M132 198.374V198.922H132.548V198.374H132ZM132 145.815H131.453V198.374H132H132.548V145.815H132ZM132 198.374V197.827H79.4407V198.374V198.922H132V198.374Z" fill="#BA6262" mask="url(#path-103-inside-51_293_73)"/>
<mask id="path-105-inside-52_293_73" fill="white">
<path d="M132 145.815H184.559V198.374H132V145.815Z"/>
</mask>
<path d="M184.559 198.374V198.922H185.107V198.374H184.559ZM184.559 145.815H184.012V198.374H184.559H185.107V145.815H184.559ZM184.559 198.374V197.827H132V198.374V198.922H184.559V198.374Z" fill="#BA6262" mask="url(#path-105-inside-52_293_73)"/>
<mask id="path-107-inside-53_293_73" fill="white">
<path d="M184.559 145.815H237.119V198.374H184.559V145.815Z"/>
</mask>
<path d="M237.119 198.374V198.922H237.666V198.374H237.119ZM237.119 145.815H236.571V198.374H237.119H237.666V145.815H237.119ZM237.119 198.374V197.827H184.559V198.374V198.922H237.119V198.374Z" fill="#BA6262" mask="url(#path-107-inside-53_293_73)"/>
<mask id="path-109-inside-54_293_73" fill="white">
<path d="M237.119 145.815H289.678V198.374H237.119V145.815Z"/>
</mask>
<path d="M289.678 198.374V198.922H290.225V198.374H289.678ZM289.678 145.815H289.13V198.374H289.678H290.225V145.815H289.678ZM289.678 198.374V197.827H237.119V198.374V198.922H289.678V198.374Z" fill="#BA6262" mask="url(#path-109-inside-54_293_73)"/>
<mask id="path-111-inside-55_293_73" fill="white">
<path d="M289.678 145.815H342.237V198.374H289.678V145.815Z"/>
</mask>
<path d="M342.237 198.374V198.922H342.785V198.374H342.237ZM342.237 145.815H341.69V198.374H342.237H342.785V145.815H342.237ZM342.237 198.374V197.827H289.678V198.374V198.922H342.237V198.374Z" fill="#BA6262" mask="url(#path-111-inside-55_293_73)"/>
<mask id="path-113-inside-56_293_73" fill="white">
<path d="M342.237 145.815H394.796V198.374H342.237V145.815Z"/>
</mask>
<path d="M394.796 198.374V198.922H395.344V198.374H394.796ZM394.796 145.815H394.249V198.374H394.796H395.344V145.815H394.796ZM394.796 198.374V197.827H342.237V198.374V198.922H394.796V198.374Z" fill="#BA6262" mask="url(#path-113-inside-56_293_73)"/>
<mask id="path-115-inside-57_293_73" fill="white">
<path d="M394.796 145.815H447.356V198.374H394.796V145.815Z"/>
</mask>
<path d="M447.356 198.374V198.922H447.903V198.374H447.356ZM447.356 145.815H446.808V198.374H447.356H447.903V145.815H447.356ZM447.356 198.374V197.827H394.796V198.374V198.922H447.356V198.374Z" fill="#BA6262" mask="url(#path-115-inside-57_293_73)"/>
<mask id="path-117-inside-58_293_73" fill="white">
<path d="M447.356 145.815H499.915V198.374H447.356V145.815Z"/>
</mask>
<path d="M499.915 198.374V198.922H500.463V198.374H499.915ZM499.915 145.815H499.368V198.374H499.915H500.463V145.815H499.915ZM499.915 198.374V197.827H447.356V198.374V198.922H499.915V198.374Z" fill="#BA6262" mask="url(#path-117-inside-58_293_73)"/>
<mask id="path-119-inside-59_293_73" fill="white">
<path d="M499.915 145.815H552.474V198.374H499.915V145.815Z"/>
</mask>
<path d="M552.474 198.374V198.922H553.022V198.374H552.474ZM552.474 145.815H551.927V198.374H552.474H553.022V145.815H552.474ZM552.474 198.374V197.827H499.915V198.374V198.922H552.474V198.374Z" fill="#BA6262" mask="url(#path-119-inside-59_293_73)"/>
<mask id="path-121-inside-60_293_73" fill="white">
<path d="M552.474 145.815H605.034V198.374H552.474V145.815Z"/>
</mask>
<path d="M605.034 198.374V198.922H605.581V198.374H605.034ZM605.034 145.815H604.486V198.374H605.034H605.581V145.815H605.034ZM605.034 198.374V197.827H552.474V198.374V198.922H605.034V198.374Z" fill="#BA6262" mask="url(#path-121-inside-60_293_73)"/>
<mask id="path-123-inside-61_293_73" fill="white">
<path d="M605.034 145.815H657.593V198.374H605.034V145.815Z"/>
</mask>
<path d="M605.034 145.815H657.593V198.374H605.034V145.815Z" fill="white" fill-opacity="0.09"/>
<path d="M657.593 198.374V198.922H658.14V198.374H657.593ZM657.593 145.815H657.045V198.374H657.593H658.14V145.815H657.593ZM657.593 198.374V197.827H605.034V198.374V198.922H657.593V198.374Z" fill="#BA6262" mask="url(#path-123-inside-61_293_73)"/>
<mask id="path-125-inside-62_293_73" fill="white">
<path d="M657.593 145.815H710.152V198.374H657.593V145.815Z"/>
</mask>
<path d="M710.152 198.374V198.922H710.7V198.374H710.152ZM710.152 145.815H709.605V198.374H710.152H710.7V145.815H710.152ZM710.152 198.374V197.827H657.593V198.374V198.922H710.152V198.374Z" fill="#BA6262" mask="url(#path-125-inside-62_293_73)"/>
<mask id="path-127-inside-63_293_73" fill="white">
<path d="M710.152 145.815H762.712V198.374H710.152V145.815Z"/>
</mask>
<path d="M762.712 198.374V198.922H763.259V198.374H762.712ZM762.712 145.815H762.164V198.374H762.712H763.259V145.815H762.712ZM762.712 198.374V197.827H710.152V198.374V198.922H762.712V198.374Z" fill="#BA6262" mask="url(#path-127-inside-63_293_73)"/>
<mask id="path-129-inside-64_293_73" fill="white">
<path d="M762.711 145.815H815.271V198.374H762.711V145.815Z"/>
</mask>
<path d="M815.271 198.374V198.922H815.818V198.374H815.271ZM815.271 145.815H814.723V198.374H815.271H815.818V145.815H815.271ZM815.271 198.374V197.827H762.711V198.374V198.922H815.271V198.374Z" fill="#BA6262" mask="url(#path-129-inside-64_293_73)"/>
<mask id="path-131-inside-65_293_73" fill="white">
<path d="M-25.6779 198.374H26.8814V250.933H-25.6779V198.374Z"/>
</mask>
<path d="M26.8814 250.933V251.481H27.4289V250.933H26.8814ZM26.8814 198.374H26.3339V250.933H26.8814H27.4289V198.374H26.8814ZM26.8814 250.933V250.386H-25.6779V250.933V251.481H26.8814V250.933Z" fill="#BA6262" mask="url(#path-131-inside-65_293_73)"/>
<mask id="path-133-inside-66_293_73" fill="white">
<path d="M26.8814 198.374H79.4407V250.933H26.8814V198.374Z"/>
</mask>
<path d="M79.4407 250.933V251.481H79.9882V250.933H79.4407ZM79.4407 198.374H78.8932V250.933H79.4407H79.9882V198.374H79.4407ZM79.4407 250.933V250.386H26.8814V250.933V251.481H79.4407V250.933Z" fill="#BA6262" mask="url(#path-133-inside-66_293_73)"/>
<mask id="path-135-inside-67_293_73" fill="white">
<path d="M79.4407 198.374H132V250.933H79.4407V198.374Z"/>
</mask>
<path d="M132 250.933V251.481H132.548V250.933H132ZM132 198.374H131.453V250.933H132H132.548V198.374H132ZM132 250.933V250.386H79.4407V250.933V251.481H132V250.933Z" fill="#BA6262" mask="url(#path-135-inside-67_293_73)"/>
<mask id="path-137-inside-68_293_73" fill="white">
<path d="M132 198.374H184.559V250.933H132V198.374Z"/>
</mask>
<path d="M184.559 250.933V251.481H185.107V250.933H184.559ZM184.559 198.374H184.012V250.933H184.559H185.107V198.374H184.559ZM184.559 250.933V250.386H132V250.933V251.481H184.559V250.933Z" fill="#BA6262" mask="url(#path-137-inside-68_293_73)"/>
<mask id="path-139-inside-69_293_73" fill="white">
<path d="M184.559 198.374H237.119V250.933H184.559V198.374Z"/>
</mask>
<path d="M237.119 250.933V251.481H237.666V250.933H237.119ZM237.119 198.374H236.571V250.933H237.119H237.666V198.374H237.119ZM237.119 250.933V250.386H184.559V250.933V251.481H237.119V250.933Z" fill="#BA6262" mask="url(#path-139-inside-69_293_73)"/>
<mask id="path-141-inside-70_293_73" fill="white">
<path d="M237.119 198.374H289.678V250.933H237.119V198.374Z"/>
</mask>
<path d="M289.678 250.933V251.481H290.225V250.933H289.678ZM289.678 198.374H289.13V250.933H289.678H290.225V198.374H289.678ZM289.678 250.933V250.386H237.119V250.933V251.481H289.678V250.933Z" fill="#BA6262" mask="url(#path-141-inside-70_293_73)"/>
<mask id="path-143-inside-71_293_73" fill="white">
<path d="M289.678 198.374H342.237V250.933H289.678V198.374Z"/>
</mask>
<path d="M289.678 198.374H342.237V250.933H289.678V198.374Z" fill="white" fill-opacity="0.09"/>
<path d="M342.237 250.933V251.481H342.785V250.933H342.237ZM342.237 198.374H341.69V250.933H342.237H342.785V198.374H342.237ZM342.237 250.933V250.386H289.678V250.933V251.481H342.237V250.933Z" fill="#BA6262" mask="url(#path-143-inside-71_293_73)"/>
<mask id="path-145-inside-72_293_73" fill="white">
<path d="M342.237 198.374H394.796V250.933H342.237V198.374Z"/>
</mask>
<path d="M394.796 250.933V251.481H395.344V250.933H394.796ZM394.796 198.374H394.249V250.933H394.796H395.344V198.374H394.796ZM394.796 250.933V250.386H342.237V250.933V251.481H394.796V250.933Z" fill="#BA6262" mask="url(#path-145-inside-72_293_73)"/>
<mask id="path-147-inside-73_293_73" fill="white">
<path d="M394.796 198.374H447.356V250.933H394.796V198.374Z"/>
</mask>
<path d="M447.356 250.933V251.481H447.903V250.933H447.356ZM447.356 198.374H446.808V250.933H447.356H447.903V198.374H447.356ZM447.356 250.933V250.386H394.796V250.933V251.481H447.356V250.933Z" fill="#BA6262" mask="url(#path-147-inside-73_293_73)"/>
<mask id="path-149-inside-74_293_73" fill="white">
<path d="M447.356 198.374H499.915V250.933H447.356V198.374Z"/>
</mask>
<path d="M499.915 250.933V251.481H500.463V250.933H499.915ZM499.915 198.374H499.368V250.933H499.915H500.463V198.374H499.915ZM499.915 250.933V250.386H447.356V250.933V251.481H499.915V250.933Z" fill="#BA6262" mask="url(#path-149-inside-74_293_73)"/>
<mask id="path-151-inside-75_293_73" fill="white">
<path d="M499.915 198.374H552.474V250.933H499.915V198.374Z"/>
</mask>
<path d="M552.474 250.933V251.481H553.022V250.933H552.474ZM552.474 198.374H551.927V250.933H552.474H553.022V198.374H552.474ZM552.474 250.933V250.386H499.915V250.933V251.481H552.474V250.933Z" fill="#BA6262" mask="url(#path-151-inside-75_293_73)"/>
<mask id="path-153-inside-76_293_73" fill="white">
<path d="M552.474 198.374H605.034V250.933H552.474V198.374Z"/>
</mask>
<path d="M605.034 250.933V251.481H605.581V250.933H605.034ZM605.034 198.374H604.486V250.933H605.034H605.581V198.374H605.034ZM605.034 250.933V250.386H552.474V250.933V251.481H605.034V250.933Z" fill="#BA6262" mask="url(#path-153-inside-76_293_73)"/>
<mask id="path-155-inside-77_293_73" fill="white">
<path d="M605.034 198.374H657.593V250.933H605.034V198.374Z"/>
</mask>
<path d="M657.593 250.933V251.481H658.14V250.933H657.593ZM657.593 198.374H657.045V250.933H657.593H658.14V198.374H657.593ZM657.593 250.933V250.386H605.034V250.933V251.481H657.593V250.933Z" fill="#BA6262" mask="url(#path-155-inside-77_293_73)"/>
<mask id="path-157-inside-78_293_73" fill="white">
<path d="M657.593 198.374H710.152V250.933H657.593V198.374Z"/>
</mask>
<path d="M710.152 250.933V251.481H710.7V250.933H710.152ZM710.152 198.374H709.605V250.933H710.152H710.7V198.374H710.152ZM710.152 250.933V250.386H657.593V250.933V251.481H710.152V250.933Z" fill="#BA6262" mask="url(#path-157-inside-78_293_73)"/>
<mask id="path-159-inside-79_293_73" fill="white">
<path d="M710.152 198.374H762.712V250.933H710.152V198.374Z"/>
</mask>
<path d="M762.712 250.933V251.481H763.259V250.933H762.712ZM762.712 198.374H762.164V250.933H762.712H763.259V198.374H762.712ZM762.712 250.933V250.386H710.152V250.933V251.481H762.712V250.933Z" fill="#BA6262" mask="url(#path-159-inside-79_293_73)"/>
<mask id="path-161-inside-80_293_73" fill="white">
<path d="M762.711 198.374H815.271V250.933H762.711V198.374Z"/>
</mask>
<path d="M815.271 250.933V251.481H815.818V250.933H815.271ZM815.271 198.374H814.723V250.933H815.271H815.818V198.374H815.271ZM815.271 250.933V250.386H762.711V250.933V251.481H815.271V250.933Z" fill="#BA6262" mask="url(#path-161-inside-80_293_73)"/>
<mask id="path-163-inside-81_293_73" fill="white">
<path d="M-25.6779 250.933H26.8814V303.493H-25.6779V250.933Z"/>
</mask>
<path d="M26.8814 303.493V304.04H27.4289V303.493H26.8814ZM26.8814 250.933H26.3339V303.493H26.8814H27.4289V250.933H26.8814ZM26.8814 303.493V302.945H-25.6779V303.493V304.04H26.8814V303.493Z" fill="#BA6262" mask="url(#path-163-inside-81_293_73)"/>
<mask id="path-165-inside-82_293_73" fill="white">
<path d="M26.8814 250.933H79.4407V303.493H26.8814V250.933Z"/>
</mask>
<path d="M79.4407 303.493V304.04H79.9882V303.493H79.4407ZM79.4407 250.933H78.8932V303.493H79.4407H79.9882V250.933H79.4407ZM79.4407 303.493V302.945H26.8814V303.493V304.04H79.4407V303.493Z" fill="#BA6262" mask="url(#path-165-inside-82_293_73)"/>
<mask id="path-167-inside-83_293_73" fill="white">
<path d="M79.4407 250.933H132V303.493H79.4407V250.933Z"/>
</mask>
<path d="M132 303.493V304.04H132.548V303.493H132ZM132 250.933H131.453V303.493H132H132.548V250.933H132ZM132 303.493V302.945H79.4407V303.493V304.04H132V303.493Z" fill="#BA6262" mask="url(#path-167-inside-83_293_73)"/>
<mask id="path-169-inside-84_293_73" fill="white">
<path d="M132 250.933H184.559V303.493H132V250.933Z"/>
</mask>
<path d="M132 250.933H184.559V303.493H132V250.933Z" fill="white" fill-opacity="0.09"/>
<path d="M184.559 303.493V304.04H185.107V303.493H184.559ZM184.559 250.933H184.012V303.493H184.559H185.107V250.933H184.559ZM184.559 303.493V302.945H132V303.493V304.04H184.559V303.493Z" fill="#BA6262" mask="url(#path-169-inside-84_293_73)"/>
<mask id="path-171-inside-85_293_73" fill="white">
<path d="M184.559 250.933H237.119V303.493H184.559V250.933Z"/>
</mask>
<path d="M237.119 303.493V304.04H237.666V303.493H237.119ZM237.119 250.933H236.571V303.493H237.119H237.666V250.933H237.119ZM237.119 303.493V302.945H184.559V303.493V304.04H237.119V303.493Z" fill="#BA6262" mask="url(#path-171-inside-85_293_73)"/>
<mask id="path-173-inside-86_293_73" fill="white">
<path d="M237.119 250.933H289.678V303.493H237.119V250.933Z"/>
</mask>
<path d="M289.678 303.493V304.04H290.225V303.493H289.678ZM289.678 250.933H289.13V303.493H289.678H290.225V250.933H289.678ZM289.678 303.493V302.945H237.119V303.493V304.04H289.678V303.493Z" fill="#BA6262" mask="url(#path-173-inside-86_293_73)"/>
<mask id="path-175-inside-87_293_73" fill="white">
<path d="M289.678 250.933H342.237V303.493H289.678V250.933Z"/>
</mask>
<path d="M342.237 303.493V304.04H342.785V303.493H342.237ZM342.237 250.933H341.69V303.493H342.237H342.785V250.933H342.237ZM342.237 303.493V302.945H289.678V303.493V304.04H342.237V303.493Z" fill="#BA6262" mask="url(#path-175-inside-87_293_73)"/>
<mask id="path-177-inside-88_293_73" fill="white">
<path d="M342.237 250.933H394.796V303.493H342.237V250.933Z"/>
</mask>
<path d="M394.796 303.493V304.04H395.344V303.493H394.796ZM394.796 250.933H394.249V303.493H394.796H395.344V250.933H394.796ZM394.796 303.493V302.945H342.237V303.493V304.04H394.796V303.493Z" fill="#BA6262" mask="url(#path-177-inside-88_293_73)"/>
<mask id="path-179-inside-89_293_73" fill="white">
<path d="M394.796 250.933H447.356V303.493H394.796V250.933Z"/>
</mask>
<path d="M447.356 303.493V304.04H447.903V303.493H447.356ZM447.356 250.933H446.808V303.493H447.356H447.903V250.933H447.356ZM447.356 303.493V302.945H394.796V303.493V304.04H447.356V303.493Z" fill="#BA6262" mask="url(#path-179-inside-89_293_73)"/>
<mask id="path-181-inside-90_293_73" fill="white">
<path d="M447.356 250.933H499.915V303.493H447.356V250.933Z"/>
</mask>
<path d="M447.356 250.933H499.915V303.493H447.356V250.933Z" fill="white" fill-opacity="0.09"/>
<path d="M499.915 303.493V304.04H500.463V303.493H499.915ZM499.915 250.933H499.368V303.493H499.915H500.463V250.933H499.915ZM499.915 303.493V302.945H447.356V303.493V304.04H499.915V303.493Z" fill="#BA6262" mask="url(#path-181-inside-90_293_73)"/>
<mask id="path-183-inside-91_293_73" fill="white">
<path d="M499.915 250.933H552.474V303.493H499.915V250.933Z"/>
</mask>
<path d="M552.474 303.493V304.04H553.022V303.493H552.474ZM552.474 250.933H551.927V303.493H552.474H553.022V250.933H552.474ZM552.474 303.493V302.945H499.915V303.493V304.04H552.474V303.493Z" fill="#BA6262" mask="url(#path-183-inside-91_293_73)"/>
<mask id="path-185-inside-92_293_73" fill="white">
<path d="M552.474 250.933H605.034V303.493H552.474V250.933Z"/>
</mask>
<path d="M605.034 303.493V304.04H605.581V303.493H605.034ZM605.034 250.933H604.486V303.493H605.034H605.581V250.933H605.034ZM605.034 303.493V302.945H552.474V303.493V304.04H605.034V303.493Z" fill="#BA6262" mask="url(#path-185-inside-92_293_73)"/>
<mask id="path-187-inside-93_293_73" fill="white">
<path d="M605.034 250.933H657.593V303.493H605.034V250.933Z"/>
</mask>
<path d="M657.593 303.493V304.04H658.14V303.493H657.593ZM657.593 250.933H657.045V303.493H657.593H658.14V250.933H657.593ZM657.593 303.493V302.945H605.034V303.493V304.04H657.593V303.493Z" fill="#BA6262" mask="url(#path-187-inside-93_293_73)"/>
<mask id="path-189-inside-94_293_73" fill="white">
<path d="M657.593 250.933H710.152V303.493H657.593V250.933Z"/>
</mask>
<path d="M710.152 303.493V304.04H710.7V303.493H710.152ZM710.152 250.933H709.605V303.493H710.152H710.7V250.933H710.152ZM710.152 303.493V302.945H657.593V303.493V304.04H710.152V303.493Z" fill="#BA6262" mask="url(#path-189-inside-94_293_73)"/>
<mask id="path-191-inside-95_293_73" fill="white">
<path d="M710.152 250.933H762.712V303.493H710.152V250.933Z"/>
</mask>
<path d="M762.712 303.493V304.04H763.259V303.493H762.712ZM762.712 250.933H762.164V303.493H762.712H763.259V250.933H762.712ZM762.712 303.493V302.945H710.152V303.493V304.04H762.712V303.493Z" fill="#BA6262" mask="url(#path-191-inside-95_293_73)"/>
<mask id="path-193-inside-96_293_73" fill="white">
<path d="M762.711 250.933H815.271V303.493H762.711V250.933Z"/>
</mask>
<path d="M815.271 303.493V304.04H815.818V303.493H815.271ZM815.271 250.933H814.723V303.493H815.271H815.818V250.933H815.271ZM815.271 303.493V302.945H762.711V303.493V304.04H815.271V303.493Z" fill="#BA6262" mask="url(#path-193-inside-96_293_73)"/>
<mask id="path-195-inside-97_293_73" fill="white">
<path d="M-25.6779 303.493H26.8814V356.052H-25.6779V303.493Z"/>
</mask>
<path d="M26.8814 356.052V356.599H27.4289V356.052H26.8814ZM26.8814 303.493H26.3339V356.052H26.8814H27.4289V303.493H26.8814ZM26.8814 356.052V355.504H-25.6779V356.052V356.599H26.8814V356.052Z" fill="#BA6262" mask="url(#path-195-inside-97_293_73)"/>
<mask id="path-197-inside-98_293_73" fill="white">
<path d="M26.8814 303.493H79.4407V356.052H26.8814V303.493Z"/>
</mask>
<path d="M26.8814 303.493H79.4407V356.052H26.8814V303.493Z" fill="white" fill-opacity="0.09"/>
<path d="M79.4407 356.052V356.599H79.9882V356.052H79.4407ZM79.4407 303.493H78.8932V356.052H79.4407H79.9882V303.493H79.4407ZM79.4407 356.052V355.504H26.8814V356.052V356.599H79.4407V356.052Z" fill="#BA6262" mask="url(#path-197-inside-98_293_73)"/>
<mask id="path-199-inside-99_293_73" fill="white">
<path d="M79.4407 303.493H132V356.052H79.4407V303.493Z"/>
</mask>
<path d="M132 356.052V356.599H132.548V356.052H132ZM132 303.493H131.453V356.052H132H132.548V303.493H132ZM132 356.052V355.504H79.4407V356.052V356.599H132V356.052Z" fill="#BA6262" mask="url(#path-199-inside-99_293_73)"/>
<mask id="path-201-inside-100_293_73" fill="white">
<path d="M132 303.493H184.559V356.052H132V303.493Z"/>
</mask>
<path d="M184.559 356.052V356.599H185.107V356.052H184.559ZM184.559 303.493H184.012V356.052H184.559H185.107V303.493H184.559ZM184.559 356.052V355.504H132V356.052V356.599H184.559V356.052Z" fill="#BA6262" mask="url(#path-201-inside-100_293_73)"/>
<mask id="path-203-inside-101_293_73" fill="white">
<path d="M184.559 303.493H237.119V356.052H184.559V303.493Z"/>
</mask>
<path d="M237.119 356.052V356.599H237.666V356.052H237.119ZM237.119 303.493H236.571V356.052H237.119H237.666V303.493H237.119ZM237.119 356.052V355.504H184.559V356.052V356.599H237.119V356.052Z" fill="#BA6262" mask="url(#path-203-inside-101_293_73)"/>
<mask id="path-205-inside-102_293_73" fill="white">
<path d="M237.119 303.493H289.678V356.052H237.119V303.493Z"/>
</mask>
<path d="M289.678 356.052V356.599H290.225V356.052H289.678ZM289.678 303.493H289.13V356.052H289.678H290.225V303.493H289.678ZM289.678 356.052V355.504H237.119V356.052V356.599H289.678V356.052Z" fill="#BA6262" mask="url(#path-205-inside-102_293_73)"/>
<mask id="path-207-inside-103_293_73" fill="white">
<path d="M289.678 303.493H342.237V356.052H289.678V303.493Z"/>
</mask>
<path d="M342.237 356.052V356.599H342.785V356.052H342.237ZM342.237 303.493H341.69V356.052H342.237H342.785V303.493H342.237ZM342.237 356.052V355.504H289.678V356.052V356.599H342.237V356.052Z" fill="#BA6262" mask="url(#path-207-inside-103_293_73)"/>
<mask id="path-209-inside-104_293_73" fill="white">
<path d="M342.237 303.493H394.796V356.052H342.237V303.493Z"/>
</mask>
<path d="M394.796 356.052V356.599H395.344V356.052H394.796ZM394.796 303.493H394.249V356.052H394.796H395.344V303.493H394.796ZM394.796 356.052V355.504H342.237V356.052V356.599H394.796V356.052Z" fill="#BA6262" mask="url(#path-209-inside-104_293_73)"/>
<mask id="path-211-inside-105_293_73" fill="white">
<path d="M394.796 303.493H447.356V356.052H394.796V303.493Z"/>
</mask>
<path d="M447.356 356.052V356.599H447.903V356.052H447.356ZM447.356 303.493H446.808V356.052H447.356H447.903V303.493H447.356ZM447.356 356.052V355.504H394.796V356.052V356.599H447.356V356.052Z" fill="#BA6262" mask="url(#path-211-inside-105_293_73)"/>
<mask id="path-213-inside-106_293_73" fill="white">
<path d="M447.356 303.493H499.915V356.052H447.356V303.493Z"/>
</mask>
<path d="M499.915 356.052V356.599H500.463V356.052H499.915ZM499.915 303.493H499.368V356.052H499.915H500.463V303.493H499.915ZM499.915 356.052V355.504H447.356V356.052V356.599H499.915V356.052Z" fill="#BA6262" mask="url(#path-213-inside-106_293_73)"/>
<mask id="path-215-inside-107_293_73" fill="white">
<path d="M499.915 303.493H552.474V356.052H499.915V303.493Z"/>
</mask>
<path d="M552.474 356.052V356.599H553.022V356.052H552.474ZM552.474 303.493H551.927V356.052H552.474H553.022V303.493H552.474ZM552.474 356.052V355.504H499.915V356.052V356.599H552.474V356.052Z" fill="#BA6262" mask="url(#path-215-inside-107_293_73)"/>
<mask id="path-217-inside-108_293_73" fill="white">
<path d="M552.474 303.493H605.034V356.052H552.474V303.493Z"/>
</mask>
<path d="M605.034 356.052V356.599H605.581V356.052H605.034ZM605.034 303.493H604.486V356.052H605.034H605.581V303.493H605.034ZM605.034 356.052V355.504H552.474V356.052V356.599H605.034V356.052Z" fill="#BA6262" mask="url(#path-217-inside-108_293_73)"/>
<mask id="path-219-inside-109_293_73" fill="white">
<path d="M605.034 303.493H657.593V356.052H605.034V303.493Z"/>
</mask>
<path d="M657.593 356.052V356.599H658.14V356.052H657.593ZM657.593 303.493H657.045V356.052H657.593H658.14V303.493H657.593ZM657.593 356.052V355.504H605.034V356.052V356.599H657.593V356.052Z" fill="#BA6262" mask="url(#path-219-inside-109_293_73)"/>
<mask id="path-221-inside-110_293_73" fill="white">
<path d="M657.593 303.493H710.152V356.052H657.593V303.493Z"/>
</mask>
<path d="M710.152 356.052V356.599H710.7V356.052H710.152ZM710.152 303.493H709.605V356.052H710.152H710.7V303.493H710.152ZM710.152 356.052V355.504H657.593V356.052V356.599H710.152V356.052Z" fill="#BA6262" mask="url(#path-221-inside-110_293_73)"/>
<mask id="path-223-inside-111_293_73" fill="white">
<path d="M710.152 303.493H762.712V356.052H710.152V303.493Z"/>
</mask>
<path d="M710.152 303.493H762.712V356.052H710.152V303.493Z" fill="white" fill-opacity="0.09"/>
<path d="M762.712 356.052V356.599H763.259V356.052H762.712ZM762.712 303.493H762.164V356.052H762.712H763.259V303.493H762.712ZM762.712 356.052V355.504H710.152V356.052V356.599H762.712V356.052Z" fill="#BA6262" mask="url(#path-223-inside-111_293_73)"/>
<mask id="path-225-inside-112_293_73" fill="white">
<path d="M762.711 303.493H815.271V356.052H762.711V303.493Z"/>
</mask>
<path d="M815.271 356.052V356.599H815.818V356.052H815.271ZM815.271 303.493H814.723V356.052H815.271H815.818V303.493H815.271ZM815.271 356.052V355.504H762.711V356.052V356.599H815.271V356.052Z" fill="#BA6262" mask="url(#path-225-inside-112_293_73)"/>
<mask id="path-227-inside-113_293_73" fill="white">
<path d="M-25.6779 356.052H26.8814V408.611H-25.6779V356.052Z"/>
</mask>
<path d="M26.8814 408.611V409.159H27.4289V408.611H26.8814ZM26.8814 356.052H26.3339V408.611H26.8814H27.4289V356.052H26.8814ZM26.8814 408.611V408.064H-25.6779V408.611V409.159H26.8814V408.611Z" fill="#BA6262" mask="url(#path-227-inside-113_293_73)"/>
<mask id="path-229-inside-114_293_73" fill="white">
<path d="M26.8814 356.052H79.4407V408.611H26.8814V356.052Z"/>
</mask>
<path d="M79.4407 408.611V409.159H79.9882V408.611H79.4407ZM79.4407 356.052H78.8932V408.611H79.4407H79.9882V356.052H79.4407ZM79.4407 408.611V408.064H26.8814V408.611V409.159H79.4407V408.611Z" fill="#BA6262" mask="url(#path-229-inside-114_293_73)"/>
<mask id="path-231-inside-115_293_73" fill="white">
<path d="M79.4407 356.052H132V408.611H79.4407V356.052Z"/>
</mask>
<path d="M132 408.611V409.159H132.548V408.611H132ZM132 356.052H131.453V408.611H132H132.548V356.052H132ZM132 408.611V408.064H79.4407V408.611V409.159H132V408.611Z" fill="#BA6262" mask="url(#path-231-inside-115_293_73)"/>
<mask id="path-233-inside-116_293_73" fill="white">
<path d="M132 356.052H184.559V408.611H132V356.052Z"/>
</mask>
<path d="M184.559 408.611V409.159H185.107V408.611H184.559ZM184.559 356.052H184.012V408.611H184.559H185.107V356.052H184.559ZM184.559 408.611V408.064H132V408.611V409.159H184.559V408.611Z" fill="#BA6262" mask="url(#path-233-inside-116_293_73)"/>
<mask id="path-235-inside-117_293_73" fill="white">
<path d="M184.559 356.052H237.119V408.611H184.559V356.052Z"/>
</mask>
<path d="M237.119 408.611V409.159H237.666V408.611H237.119ZM237.119 356.052H236.571V408.611H237.119H237.666V356.052H237.119ZM237.119 408.611V408.064H184.559V408.611V409.159H237.119V408.611Z" fill="#BA6262" mask="url(#path-235-inside-117_293_73)"/>
<mask id="path-237-inside-118_293_73" fill="white">
<path d="M237.119 356.052H289.678V408.611H237.119V356.052Z"/>
</mask>
<path d="M289.678 408.611V409.159H290.225V408.611H289.678ZM289.678 356.052H289.13V408.611H289.678H290.225V356.052H289.678ZM289.678 408.611V408.064H237.119V408.611V409.159H289.678V408.611Z" fill="#BA6262" mask="url(#path-237-inside-118_293_73)"/>
<mask id="path-239-inside-119_293_73" fill="white">
<path d="M289.678 356.052H342.237V408.611H289.678V356.052Z"/>
</mask>
<path d="M289.678 356.052H342.237V408.611H289.678V356.052Z" fill="white" fill-opacity="0.09"/>
<path d="M342.237 408.611V409.159H342.785V408.611H342.237ZM342.237 356.052H341.69V408.611H342.237H342.785V356.052H342.237ZM342.237 408.611V408.064H289.678V408.611V409.159H342.237V408.611Z" fill="#BA6262" mask="url(#path-239-inside-119_293_73)"/>
<mask id="path-241-inside-120_293_73" fill="white">
<path d="M342.237 356.052H394.796V408.611H342.237V356.052Z"/>
</mask>
<path d="M394.796 408.611V409.159H395.344V408.611H394.796ZM394.796 356.052H394.249V408.611H394.796H395.344V356.052H394.796ZM394.796 408.611V408.064H342.237V408.611V409.159H394.796V408.611Z" fill="#BA6262" mask="url(#path-241-inside-120_293_73)"/>
<mask id="path-243-inside-121_293_73" fill="white">
<path d="M394.796 356.052H447.356V408.611H394.796V356.052Z"/>
</mask>
<path d="M447.356 408.611V409.159H447.903V408.611H447.356ZM447.356 356.052H446.808V408.611H447.356H447.903V356.052H447.356ZM447.356 408.611V408.064H394.796V408.611V409.159H447.356V408.611Z" fill="#BA6262" mask="url(#path-243-inside-121_293_73)"/>
<mask id="path-245-inside-122_293_73" fill="white">
<path d="M447.356 356.052H499.915V408.611H447.356V356.052Z"/>
</mask>
<path d="M499.915 408.611V409.159H500.463V408.611H499.915ZM499.915 356.052H499.368V408.611H499.915H500.463V356.052H499.915ZM499.915 408.611V408.064H447.356V408.611V409.159H499.915V408.611Z" fill="#BA6262" mask="url(#path-245-inside-122_293_73)"/>
<mask id="path-247-inside-123_293_73" fill="white">
<path d="M499.915 356.052H552.474V408.611H499.915V356.052Z"/>
</mask>
<path d="M552.474 408.611V409.159H553.022V408.611H552.474ZM552.474 356.052H551.927V408.611H552.474H553.022V356.052H552.474ZM552.474 408.611V408.064H499.915V408.611V409.159H552.474V408.611Z" fill="#BA6262" mask="url(#path-247-inside-123_293_73)"/>
<mask id="path-249-inside-124_293_73" fill="white">
<path d="M552.474 356.052H605.034V408.611H552.474V356.052Z"/>
</mask>
<path d="M605.034 408.611V409.159H605.581V408.611H605.034ZM605.034 356.052H604.486V408.611H605.034H605.581V356.052H605.034ZM605.034 408.611V408.064H552.474V408.611V409.159H605.034V408.611Z" fill="#BA6262" mask="url(#path-249-inside-124_293_73)"/>
<mask id="path-251-inside-125_293_73" fill="white">
<path d="M605.034 356.052H657.593V408.611H605.034V356.052Z"/>
</mask>
<path d="M605.034 356.052H657.593V408.611H605.034V356.052Z" fill="white" fill-opacity="0.09"/>
<path d="M657.593 408.611V409.159H658.14V408.611H657.593ZM657.593 356.052H657.045V408.611H657.593H658.14V356.052H657.593ZM657.593 408.611V408.064H605.034V408.611V409.159H657.593V408.611Z" fill="#BA6262" mask="url(#path-251-inside-125_293_73)"/>
<mask id="path-253-inside-126_293_73" fill="white">
<path d="M657.593 356.052H710.152V408.611H657.593V356.052Z"/>
</mask>
<path d="M710.152 408.611V409.159H710.7V408.611H710.152ZM710.152 356.052H709.605V408.611H710.152H710.7V356.052H710.152ZM710.152 408.611V408.064H657.593V408.611V409.159H710.152V408.611Z" fill="#BA6262" mask="url(#path-253-inside-126_293_73)"/>
<mask id="path-255-inside-127_293_73" fill="white">
<path d="M710.152 356.052H762.712V408.611H710.152V356.052Z"/>
</mask>
<path d="M762.712 408.611V409.159H763.259V408.611H762.712ZM762.712 356.052H762.164V408.611H762.712H763.259V356.052H762.712ZM762.712 408.611V408.064H710.152V408.611V409.159H762.712V408.611Z" fill="#BA6262" mask="url(#path-255-inside-127_293_73)"/>
<mask id="path-257-inside-128_293_73" fill="white">
<path d="M762.711 356.052H815.271V408.611H762.711V356.052Z"/>
</mask>
<path d="M815.271 408.611V409.159H815.818V408.611H815.271ZM815.271 356.052H814.723V408.611H815.271H815.818V356.052H815.271ZM815.271 408.611V408.064H762.711V408.611V409.159H815.271V408.611Z" fill="#BA6262" mask="url(#path-257-inside-128_293_73)"/>
<mask id="path-259-inside-129_293_73" fill="white">
<path d="M-25.6779 408.611H26.8814V461.171H-25.6779V408.611Z"/>
</mask>
<path d="M26.8814 461.171V461.718H27.4289V461.171H26.8814ZM26.8814 408.611H26.3339V461.171H26.8814H27.4289V408.611H26.8814ZM26.8814 461.171V460.623H-25.6779V461.171V461.718H26.8814V461.171Z" fill="#BA6262" mask="url(#path-259-inside-129_293_73)"/>
<mask id="path-261-inside-130_293_73" fill="white">
<path d="M26.8814 408.611H79.4407V461.171H26.8814V408.611Z"/>
</mask>
<path d="M79.4407 461.171V461.718H79.9882V461.171H79.4407ZM79.4407 408.611H78.8932V461.171H79.4407H79.9882V408.611H79.4407ZM79.4407 461.171V460.623H26.8814V461.171V461.718H79.4407V461.171Z" fill="#BA6262" mask="url(#path-261-inside-130_293_73)"/>
<mask id="path-263-inside-131_293_73" fill="white">
<path d="M79.4407 408.611H132V461.171H79.4407V408.611Z"/>
</mask>
<path d="M132 461.171V461.718H132.548V461.171H132ZM132 408.611H131.453V461.171H132H132.548V408.611H132ZM132 461.171V460.623H79.4407V461.171V461.718H132V461.171Z" fill="#BA6262" mask="url(#path-263-inside-131_293_73)"/>
<mask id="path-265-inside-132_293_73" fill="white">
<path d="M132 408.611H184.559V461.171H132V408.611Z"/>
</mask>
<path d="M132 408.611H184.559V461.171H132V408.611Z" fill="white" fill-opacity="0.09"/>
<path d="M184.559 461.171V461.718H185.107V461.171H184.559ZM184.559 408.611H184.012V461.171H184.559H185.107V408.611H184.559ZM184.559 461.171V460.623H132V461.171V461.718H184.559V461.171Z" fill="#BA6262" mask="url(#path-265-inside-132_293_73)"/>
<mask id="path-267-inside-133_293_73" fill="white">
<path d="M184.559 408.611H237.119V461.171H184.559V408.611Z"/>
</mask>
<path d="M237.119 461.171V461.718H237.666V461.171H237.119ZM237.119 408.611H236.571V461.171H237.119H237.666V408.611H237.119ZM237.119 461.171V460.623H184.559V461.171V461.718H237.119V461.171Z" fill="#BA6262" mask="url(#path-267-inside-133_293_73)"/>
<mask id="path-269-inside-134_293_73" fill="white">
<path d="M237.119 408.611H289.678V461.171H237.119V408.611Z"/>
</mask>
<path d="M289.678 461.171V461.718H290.225V461.171H289.678ZM289.678 408.611H289.13V461.171H289.678H290.225V408.611H289.678ZM289.678 461.171V460.623H237.119V461.171V461.718H289.678V461.171Z" fill="#BA6262" mask="url(#path-269-inside-134_293_73)"/>
<mask id="path-271-inside-135_293_73" fill="white">
<path d="M289.678 408.611H342.237V461.171H289.678V408.611Z"/>
</mask>
<path d="M342.237 461.171V461.718H342.785V461.171H342.237ZM342.237 408.611H341.69V461.171H342.237H342.785V408.611H342.237ZM342.237 461.171V460.623H289.678V461.171V461.718H342.237V461.171Z" fill="#BA6262" mask="url(#path-271-inside-135_293_73)"/>
<mask id="path-273-inside-136_293_73" fill="white">
<path d="M342.237 408.611H394.796V461.171H342.237V408.611Z"/>
</mask>
<path d="M394.796 461.171V461.718H395.344V461.171H394.796ZM394.796 408.611H394.249V461.171H394.796H395.344V408.611H394.796ZM394.796 461.171V460.623H342.237V461.171V461.718H394.796V461.171Z" fill="#BA6262" mask="url(#path-273-inside-136_293_73)"/>
<mask id="path-275-inside-137_293_73" fill="white">
<path d="M394.796 408.611H447.356V461.171H394.796V408.611Z"/>
</mask>
<path d="M447.356 461.171V461.718H447.903V461.171H447.356ZM447.356 408.611H446.808V461.171H447.356H447.903V408.611H447.356ZM447.356 461.171V460.623H394.796V461.171V461.718H447.356V461.171Z" fill="#BA6262" mask="url(#path-275-inside-137_293_73)"/>
<mask id="path-277-inside-138_293_73" fill="white">
<path d="M447.356 408.611H499.915V461.171H447.356V408.611Z"/>
</mask>
<path d="M447.356 408.611H499.915V461.171H447.356V408.611Z" fill="white" fill-opacity="0.09"/>
<path d="M499.915 461.171V461.718H500.463V461.171H499.915ZM499.915 408.611H499.368V461.171H499.915H500.463V408.611H499.915ZM499.915 461.171V460.623H447.356V461.171V461.718H499.915V461.171Z" fill="#BA6262" mask="url(#path-277-inside-138_293_73)"/>
<mask id="path-279-inside-139_293_73" fill="white">
<path d="M499.915 408.611H552.474V461.171H499.915V408.611Z"/>
</mask>
<path d="M552.474 461.171V461.718H553.022V461.171H552.474ZM552.474 408.611H551.927V461.171H552.474H553.022V408.611H552.474ZM552.474 461.171V460.623H499.915V461.171V461.718H552.474V461.171Z" fill="#BA6262" mask="url(#path-279-inside-139_293_73)"/>
<mask id="path-281-inside-140_293_73" fill="white">
<path d="M552.474 408.611H605.034V461.171H552.474V408.611Z"/>
</mask>
<path d="M605.034 461.171V461.718H605.581V461.171H605.034ZM605.034 408.611H604.486V461.171H605.034H605.581V408.611H605.034ZM605.034 461.171V460.623H552.474V461.171V461.718H605.034V461.171Z" fill="#BA6262" mask="url(#path-281-inside-140_293_73)"/>
<mask id="path-283-inside-141_293_73" fill="white">
<path d="M605.034 408.611H657.593V461.171H605.034V408.611Z"/>
</mask>
<path d="M657.593 461.171V461.718H658.14V461.171H657.593ZM657.593 408.611H657.045V461.171H657.593H658.14V408.611H657.593ZM657.593 461.171V460.623H605.034V461.171V461.718H657.593V461.171Z" fill="#BA6262" mask="url(#path-283-inside-141_293_73)"/>
<mask id="path-285-inside-142_293_73" fill="white">
<path d="M657.593 408.611H710.152V461.171H657.593V408.611Z"/>
</mask>
<path d="M710.152 461.171V461.718H710.7V461.171H710.152ZM710.152 408.611H709.605V461.171H710.152H710.7V408.611H710.152ZM710.152 461.171V460.623H657.593V461.171V461.718H710.152V461.171Z" fill="#BA6262" mask="url(#path-285-inside-142_293_73)"/>
<mask id="path-287-inside-143_293_73" fill="white">
<path d="M710.152 408.611H762.712V461.171H710.152V408.611Z"/>
</mask>
<path d="M762.712 461.171V461.718H763.259V461.171H762.712ZM762.712 408.611H762.164V461.171H762.712H763.259V408.611H762.712ZM762.712 461.171V460.623H710.152V461.171V461.718H762.712V461.171Z" fill="#BA6262" mask="url(#path-287-inside-143_293_73)"/>
<mask id="path-289-inside-144_293_73" fill="white">
<path d="M762.711 408.611H815.271V461.171H762.711V408.611Z"/>
</mask>
<path d="M815.271 461.171V461.718H815.818V461.171H815.271ZM815.271 408.611H814.723V461.171H815.271H815.818V408.611H815.271ZM815.271 461.171V460.623H762.711V461.171V461.718H815.271V461.171Z" fill="#BA6262" mask="url(#path-289-inside-144_293_73)"/>
<mask id="path-291-inside-145_293_73" fill="white">
<path d="M-25.6779 461.171H26.8814V513.73H-25.6779V461.171Z"/>
</mask>
<path d="M26.8814 513.73V514.277H27.4289V513.73H26.8814ZM26.8814 461.171H26.3339V513.73H26.8814H27.4289V461.171H26.8814ZM26.8814 513.73V513.182H-25.6779V513.73V514.277H26.8814V513.73Z" fill="#BA6262" mask="url(#path-291-inside-145_293_73)"/>
<mask id="path-293-inside-146_293_73" fill="white">
<path d="M26.8814 461.171H79.4407V513.73H26.8814V461.171Z"/>
</mask>
<path d="M79.4407 513.73V514.277H79.9882V513.73H79.4407ZM79.4407 461.171H78.8932V513.73H79.4407H79.9882V461.171H79.4407ZM79.4407 513.73V513.182H26.8814V513.73V514.277H79.4407V513.73Z" fill="#BA6262" mask="url(#path-293-inside-146_293_73)"/>
<mask id="path-295-inside-147_293_73" fill="white">
<path d="M79.4407 461.171H132V513.73H79.4407V461.171Z"/>
</mask>
<path d="M132 513.73V514.277H132.548V513.73H132ZM132 461.171H131.453V513.73H132H132.548V461.171H132ZM132 513.73V513.182H79.4407V513.73V514.277H132V513.73Z" fill="#BA6262" mask="url(#path-295-inside-147_293_73)"/>
<mask id="path-297-inside-148_293_73" fill="white">
<path d="M132 461.171H184.559V513.73H132V461.171Z"/>
</mask>
<path d="M184.559 513.73V514.277H185.107V513.73H184.559ZM184.559 461.171H184.012V513.73H184.559H185.107V461.171H184.559ZM184.559 513.73V513.182H132V513.73V514.277H184.559V513.73Z" fill="#BA6262" mask="url(#path-297-inside-148_293_73)"/>
<mask id="path-299-inside-149_293_73" fill="white">
<path d="M184.559 461.171H237.119V513.73H184.559V461.171Z"/>
</mask>
<path d="M237.119 513.73V514.277H237.666V513.73H237.119ZM237.119 461.171H236.571V513.73H237.119H237.666V461.171H237.119ZM237.119 513.73V513.182H184.559V513.73V514.277H237.119V513.73Z" fill="#BA6262" mask="url(#path-299-inside-149_293_73)"/>
<mask id="path-301-inside-150_293_73" fill="white">
<path d="M237.119 461.171H289.678V513.73H237.119V461.171Z"/>
</mask>
<path d="M289.678 513.73V514.277H290.225V513.73H289.678ZM289.678 461.171H289.13V513.73H289.678H290.225V461.171H289.678ZM289.678 513.73V513.182H237.119V513.73V514.277H289.678V513.73Z" fill="#BA6262" mask="url(#path-301-inside-150_293_73)"/>
<mask id="path-303-inside-151_293_73" fill="white">
<path d="M289.678 461.171H342.237V513.73H289.678V461.171Z"/>
</mask>
<path d="M342.237 513.73V514.277H342.785V513.73H342.237ZM342.237 461.171H341.69V513.73H342.237H342.785V461.171H342.237ZM342.237 513.73V513.182H289.678V513.73V514.277H342.237V513.73Z" fill="#BA6262" mask="url(#path-303-inside-151_293_73)"/>
<mask id="path-305-inside-152_293_73" fill="white">
<path d="M342.237 461.171H394.796V513.73H342.237V461.171Z"/>
</mask>
<path d="M394.796 513.73V514.277H395.344V513.73H394.796ZM394.796 461.171H394.249V513.73H394.796H395.344V461.171H394.796ZM394.796 513.73V513.182H342.237V513.73V514.277H394.796V513.73Z" fill="#BA6262" mask="url(#path-305-inside-152_293_73)"/>
<mask id="path-307-inside-153_293_73" fill="white">
<path d="M394.796 461.171H447.356V513.73H394.796V461.171Z"/>
</mask>
<path d="M447.356 513.73V514.277H447.903V513.73H447.356ZM447.356 461.171H446.808V513.73H447.356H447.903V461.171H447.356ZM447.356 513.73V513.182H394.796V513.73V514.277H447.356V513.73Z" fill="#BA6262" mask="url(#path-307-inside-153_293_73)"/>
<mask id="path-309-inside-154_293_73" fill="white">
<path d="M447.356 461.171H499.915V513.73H447.356V461.171Z"/>
</mask>
<path d="M499.915 513.73V514.277H500.463V513.73H499.915ZM499.915 461.171H499.368V513.73H499.915H500.463V461.171H499.915ZM499.915 513.73V513.182H447.356V513.73V514.277H499.915V513.73Z" fill="#BA6262" mask="url(#path-309-inside-154_293_73)"/>
<mask id="path-311-inside-155_293_73" fill="white">
<path d="M499.915 461.171H552.474V513.73H499.915V461.171Z"/>
</mask>
<path d="M552.474 513.73V514.277H553.022V513.73H552.474ZM552.474 461.171H551.927V513.73H552.474H553.022V461.171H552.474ZM552.474 513.73V513.182H499.915V513.73V514.277H552.474V513.73Z" fill="#BA6262" mask="url(#path-311-inside-155_293_73)"/>
<mask id="path-313-inside-156_293_73" fill="white">
<path d="M552.474 461.171H605.034V513.73H552.474V461.171Z"/>
</mask>
<path d="M605.034 513.73V514.277H605.581V513.73H605.034ZM605.034 461.171H604.486V513.73H605.034H605.581V461.171H605.034ZM605.034 513.73V513.182H552.474V513.73V514.277H605.034V513.73Z" fill="#BA6262" mask="url(#path-313-inside-156_293_73)"/>
<mask id="path-315-inside-157_293_73" fill="white">
<path d="M605.034 461.171H657.593V513.73H605.034V461.171Z"/>
</mask>
<path d="M657.593 513.73V514.277H658.14V513.73H657.593ZM657.593 461.171H657.045V513.73H657.593H658.14V461.171H657.593ZM657.593 513.73V513.182H605.034V513.73V514.277H657.593V513.73Z" fill="#BA6262" mask="url(#path-315-inside-157_293_73)"/>
<mask id="path-317-inside-158_293_73" fill="white">
<path d="M657.593 461.171H710.152V513.73H657.593V461.171Z"/>
</mask>
<path d="M710.152 513.73V514.277H710.7V513.73H710.152ZM710.152 461.171H709.605V513.73H710.152H710.7V461.171H710.152ZM710.152 513.73V513.182H657.593V513.73V514.277H710.152V513.73Z" fill="#BA6262" mask="url(#path-317-inside-158_293_73)"/>
<mask id="path-319-inside-159_293_73" fill="white">
<path d="M710.152 461.171H762.712V513.73H710.152V461.171Z"/>
</mask>
<path d="M762.712 513.73V514.277H763.259V513.73H762.712ZM762.712 461.171H762.164V513.73H762.712H763.259V461.171H762.712ZM762.712 513.73V513.182H710.152V513.73V514.277H762.712V513.73Z" fill="#BA6262" mask="url(#path-319-inside-159_293_73)"/>
<mask id="path-321-inside-160_293_73" fill="white">
<path d="M762.711 461.171H815.271V513.73H762.711V461.171Z"/>
</mask>
<path d="M762.711 461.171H815.271V513.73H762.711V461.171Z" fill="white" fill-opacity="0.09"/>
<path d="M815.271 513.73V514.277H815.818V513.73H815.271ZM815.271 461.171H814.723V513.73H815.271H815.818V461.171H815.271ZM815.271 513.73V513.182H762.711V513.73V514.277H815.271V513.73Z" fill="#BA6262" mask="url(#path-321-inside-160_293_73)"/>
<mask id="path-323-inside-161_293_73" fill="white">
<path d="M-25.6779 513.73H26.8814V566.289H-25.6779V513.73Z"/>
</mask>
<path d="M26.8814 566.289V566.837H27.4289V566.289H26.8814ZM26.8814 513.73H26.3339V566.289H26.8814H27.4289V513.73H26.8814ZM26.8814 566.289V565.742H-25.6779V566.289V566.837H26.8814V566.289Z" fill="#BA6262" mask="url(#path-323-inside-161_293_73)"/>
<mask id="path-325-inside-162_293_73" fill="white">
<path d="M26.8814 513.73H79.4407V566.289H26.8814V513.73Z"/>
</mask>
<path d="M79.4407 566.289V566.837H79.9882V566.289H79.4407ZM79.4407 513.73H78.8932V566.289H79.4407H79.9882V513.73H79.4407ZM79.4407 566.289V565.742H26.8814V566.289V566.837H79.4407V566.289Z" fill="#BA6262" mask="url(#path-325-inside-162_293_73)"/>
<mask id="path-327-inside-163_293_73" fill="white">
<path d="M79.4407 513.73H132V566.289H79.4407V513.73Z"/>
</mask>
<path d="M132 566.289V566.837H132.548V566.289H132ZM132 513.73H131.453V566.289H132H132.548V513.73H132ZM132 566.289V565.742H79.4407V566.289V566.837H132V566.289Z" fill="#BA6262" mask="url(#path-327-inside-163_293_73)"/>
<mask id="path-329-inside-164_293_73" fill="white">
<path d="M132 513.73H184.559V566.289H132V513.73Z"/>
</mask>
<path d="M184.559 566.289V566.837H185.107V566.289H184.559ZM184.559 513.73H184.012V566.289H184.559H185.107V513.73H184.559ZM184.559 566.289V565.742H132V566.289V566.837H184.559V566.289Z" fill="#BA6262" mask="url(#path-329-inside-164_293_73)"/>
<mask id="path-331-inside-165_293_73" fill="white">
<path d="M184.559 513.73H237.119V566.289H184.559V513.73Z"/>
</mask>
<path d="M184.559 513.73H237.119V566.289H184.559V513.73Z" fill="white" fill-opacity="0.09"/>
<path d="M237.119 566.289V566.837H237.666V566.289H237.119ZM237.119 513.73H236.571V566.289H237.119H237.666V513.73H237.119ZM237.119 566.289V565.742H184.559V566.289V566.837H237.119V566.289Z" fill="#BA6262" mask="url(#path-331-inside-165_293_73)"/>
<mask id="path-333-inside-166_293_73" fill="white">
<path d="M237.119 513.73H289.678V566.289H237.119V513.73Z"/>
</mask>
<path d="M289.678 566.289V566.837H290.225V566.289H289.678ZM289.678 513.73H289.13V566.289H289.678H290.225V513.73H289.678ZM289.678 566.289V565.742H237.119V566.289V566.837H289.678V566.289Z" fill="#BA6262" mask="url(#path-333-inside-166_293_73)"/>
<mask id="path-335-inside-167_293_73" fill="white">
<path d="M289.678 513.73H342.237V566.289H289.678V513.73Z"/>
</mask>
<path d="M342.237 566.289V566.837H342.785V566.289H342.237ZM342.237 513.73H341.69V566.289H342.237H342.785V513.73H342.237ZM342.237 566.289V565.742H289.678V566.289V566.837H342.237V566.289Z" fill="#BA6262" mask="url(#path-335-inside-167_293_73)"/>
<mask id="path-337-inside-168_293_73" fill="white">
<path d="M342.237 513.73H394.796V566.289H342.237V513.73Z"/>
</mask>
<path d="M394.796 566.289V566.837H395.344V566.289H394.796ZM394.796 513.73H394.249V566.289H394.796H395.344V513.73H394.796ZM394.796 566.289V565.742H342.237V566.289V566.837H394.796V566.289Z" fill="#BA6262" mask="url(#path-337-inside-168_293_73)"/>
<mask id="path-339-inside-169_293_73" fill="white">
<path d="M394.796 513.73H447.356V566.289H394.796V513.73Z"/>
</mask>
<path d="M394.796 513.73H447.356V566.289H394.796V513.73Z" fill="white" fill-opacity="0.09"/>
<path d="M447.356 566.289V566.837H447.903V566.289H447.356ZM447.356 513.73H446.808V566.289H447.356H447.903V513.73H447.356ZM447.356 566.289V565.742H394.796V566.289V566.837H447.356V566.289Z" fill="#BA6262" mask="url(#path-339-inside-169_293_73)"/>
<mask id="path-341-inside-170_293_73" fill="white">
<path d="M447.356 513.73H499.915V566.289H447.356V513.73Z"/>
</mask>
<path d="M499.915 566.289V566.837H500.463V566.289H499.915ZM499.915 513.73H499.368V566.289H499.915H500.463V513.73H499.915ZM499.915 566.289V565.742H447.356V566.289V566.837H499.915V566.289Z" fill="#BA6262" mask="url(#path-341-inside-170_293_73)"/>
<mask id="path-343-inside-171_293_73" fill="white">
<path d="M499.915 513.73H552.474V566.289H499.915V513.73Z"/>
</mask>
<path d="M552.474 566.289V566.837H553.022V566.289H552.474ZM552.474 513.73H551.927V566.289H552.474H553.022V513.73H552.474ZM552.474 566.289V565.742H499.915V566.289V566.837H552.474V566.289Z" fill="#BA6262" mask="url(#path-343-inside-171_293_73)"/>
<mask id="path-345-inside-172_293_73" fill="white">
<path d="M552.474 513.73H605.034V566.289H552.474V513.73Z"/>
</mask>
<path d="M605.034 566.289V566.837H605.581V566.289H605.034ZM605.034 513.73H604.486V566.289H605.034H605.581V513.73H605.034ZM605.034 566.289V565.742H552.474V566.289V566.837H605.034V566.289Z" fill="#BA6262" mask="url(#path-345-inside-172_293_73)"/>
<mask id="path-347-inside-173_293_73" fill="white">
<path d="M605.034 513.73H657.593V566.289H605.034V513.73Z"/>
</mask>
<path d="M657.593 566.289V566.837H658.14V566.289H657.593ZM657.593 513.73H657.045V566.289H657.593H658.14V513.73H657.593ZM657.593 566.289V565.742H605.034V566.289V566.837H657.593V566.289Z" fill="#BA6262" mask="url(#path-347-inside-173_293_73)"/>
<mask id="path-349-inside-174_293_73" fill="white">
<path d="M657.593 513.73H710.152V566.289H657.593V513.73Z"/>
</mask>
<path d="M710.152 566.289V566.837H710.7V566.289H710.152ZM710.152 513.73H709.605V566.289H710.152H710.7V513.73H710.152ZM710.152 566.289V565.742H657.593V566.289V566.837H710.152V566.289Z" fill="#BA6262" mask="url(#path-349-inside-174_293_73)"/>
<mask id="path-351-inside-175_293_73" fill="white">
<path d="M710.152 513.73H762.712V566.289H710.152V513.73Z"/>
</mask>
<path d="M762.712 566.289V566.837H763.259V566.289H762.712ZM762.712 513.73H762.164V566.289H762.712H763.259V513.73H762.712ZM762.712 566.289V565.742H710.152V566.289V566.837H762.712V566.289Z" fill="#BA6262" mask="url(#path-351-inside-175_293_73)"/>
<mask id="path-353-inside-176_293_73" fill="white">
<path d="M762.711 513.73H815.271V566.289H762.711V513.73Z"/>
</mask>
<path d="M815.271 566.289V566.837H815.818V566.289H815.271ZM815.271 513.73H814.723V566.289H815.271H815.818V513.73H815.271ZM815.271 566.289V565.742H762.711V566.289V566.837H815.271V566.289Z" fill="#BA6262" mask="url(#path-353-inside-176_293_73)"/>
<mask id="path-355-inside-177_293_73" fill="white">
<path d="M-25.6779 566.289H26.8814V618.848H-25.6779V566.289Z"/>
</mask>
<path d="M-25.6779 566.289H26.8814V618.848H-25.6779V566.289Z" fill="white" fill-opacity="0.09"/>
<path d="M26.8814 618.848V619.396H27.4289V618.848H26.8814ZM26.8814 566.289H26.3339V618.848H26.8814H27.4289V566.289H26.8814ZM26.8814 618.848V618.301H-25.6779V618.848V619.396H26.8814V618.848Z" fill="#BA6262" mask="url(#path-355-inside-177_293_73)"/>
<mask id="path-357-inside-178_293_73" fill="white">
<path d="M26.8814 566.289H79.4407V618.848H26.8814V566.289Z"/>
</mask>
<path d="M79.4407 618.848V619.396H79.9882V618.848H79.4407ZM79.4407 566.289H78.8932V618.848H79.4407H79.9882V566.289H79.4407ZM79.4407 618.848V618.301H26.8814V618.848V619.396H79.4407V618.848Z" fill="#BA6262" mask="url(#path-357-inside-178_293_73)"/>
<mask id="path-359-inside-179_293_73" fill="white">
<path d="M79.4407 566.289H132V618.848H79.4407V566.289Z"/>
</mask>
<path d="M132 618.848V619.396H132.548V618.848H132ZM132 566.289H131.453V618.848H132H132.548V566.289H132ZM132 618.848V618.301H79.4407V618.848V619.396H132V618.848Z" fill="#BA6262" mask="url(#path-359-inside-179_293_73)"/>
<mask id="path-361-inside-180_293_73" fill="white">
<path d="M132 566.289H184.559V618.848H132V566.289Z"/>
</mask>
<path d="M184.559 618.848V619.396H185.107V618.848H184.559ZM184.559 566.289H184.012V618.848H184.559H185.107V566.289H184.559ZM184.559 618.848V618.301H132V618.848V619.396H184.559V618.848Z" fill="#BA6262" mask="url(#path-361-inside-180_293_73)"/>
<mask id="path-363-inside-181_293_73" fill="white">
<path d="M184.559 566.289H237.119V618.848H184.559V566.289Z"/>
</mask>
<path d="M237.119 618.848V619.396H237.666V618.848H237.119ZM237.119 566.289H236.571V618.848H237.119H237.666V566.289H237.119ZM237.119 618.848V618.301H184.559V618.848V619.396H237.119V618.848Z" fill="#BA6262" mask="url(#path-363-inside-181_293_73)"/>
<mask id="path-365-inside-182_293_73" fill="white">
<path d="M237.119 566.289H289.678V618.848H237.119V566.289Z"/>
</mask>
<path d="M289.678 618.848V619.396H290.225V618.848H289.678ZM289.678 566.289H289.13V618.848H289.678H290.225V566.289H289.678ZM289.678 618.848V618.301H237.119V618.848V619.396H289.678V618.848Z" fill="#BA6262" mask="url(#path-365-inside-182_293_73)"/>
<mask id="path-367-inside-183_293_73" fill="white">
<path d="M289.678 566.289H342.237V618.848H289.678V566.289Z"/>
</mask>
<path d="M342.237 618.848V619.396H342.785V618.848H342.237ZM342.237 566.289H341.69V618.848H342.237H342.785V566.289H342.237ZM342.237 618.848V618.301H289.678V618.848V619.396H342.237V618.848Z" fill="#BA6262" mask="url(#path-367-inside-183_293_73)"/>
<mask id="path-369-inside-184_293_73" fill="white">
<path d="M342.237 566.289H394.796V618.848H342.237V566.289Z"/>
</mask>
<path d="M394.796 618.848V619.396H395.344V618.848H394.796ZM394.796 566.289H394.249V618.848H394.796H395.344V566.289H394.796ZM394.796 618.848V618.301H342.237V618.848V619.396H394.796V618.848Z" fill="#BA6262" mask="url(#path-369-inside-184_293_73)"/>
<mask id="path-371-inside-185_293_73" fill="white">
<path d="M394.796 566.289H447.356V618.848H394.796V566.289Z"/>
</mask>
<path d="M447.356 618.848V619.396H447.903V618.848H447.356ZM447.356 566.289H446.808V618.848H447.356H447.903V566.289H447.356ZM447.356 618.848V618.301H394.796V618.848V619.396H447.356V618.848Z" fill="#BA6262" mask="url(#path-371-inside-185_293_73)"/>
<mask id="path-373-inside-186_293_73" fill="white">
<path d="M447.356 566.289H499.915V618.848H447.356V566.289Z"/>
</mask>
<path d="M499.915 618.848V619.396H500.463V618.848H499.915ZM499.915 566.289H499.368V618.848H499.915H500.463V566.289H499.915ZM499.915 618.848V618.301H447.356V618.848V619.396H499.915V618.848Z" fill="#BA6262" mask="url(#path-373-inside-186_293_73)"/>
<mask id="path-375-inside-187_293_73" fill="white">
<path d="M499.915 566.289H552.474V618.848H499.915V566.289Z"/>
</mask>
<path d="M552.474 618.848V619.396H553.022V618.848H552.474ZM552.474 566.289H551.927V618.848H552.474H553.022V566.289H552.474ZM552.474 618.848V618.301H499.915V618.848V619.396H552.474V618.848Z" fill="#BA6262" mask="url(#path-375-inside-187_293_73)"/>
<mask id="path-377-inside-188_293_73" fill="white">
<path d="M552.474 566.289H605.034V618.848H552.474V566.289Z"/>
</mask>
<path d="M605.034 618.848V619.396H605.581V618.848H605.034ZM605.034 566.289H604.486V618.848H605.034H605.581V566.289H605.034ZM605.034 618.848V618.301H552.474V618.848V619.396H605.034V618.848Z" fill="#BA6262" mask="url(#path-377-inside-188_293_73)"/>
<mask id="path-379-inside-189_293_73" fill="white">
<path d="M605.034 566.289H657.593V618.848H605.034V566.289Z"/>
</mask>
<path d="M605.034 566.289H657.593V618.848H605.034V566.289Z" fill="white" fill-opacity="0.09"/>
<path d="M657.593 618.848V619.396H658.14V618.848H657.593ZM657.593 566.289H657.045V618.848H657.593H658.14V566.289H657.593ZM657.593 618.848V618.301H605.034V618.848V619.396H657.593V618.848Z" fill="#BA6262" mask="url(#path-379-inside-189_293_73)"/>
<mask id="path-381-inside-190_293_73" fill="white">
<path d="M657.593 566.289H710.152V618.848H657.593V566.289Z"/>
</mask>
<path d="M710.152 618.848V619.396H710.7V618.848H710.152ZM710.152 566.289H709.605V618.848H710.152H710.7V566.289H710.152ZM710.152 618.848V618.301H657.593V618.848V619.396H710.152V618.848Z" fill="#BA6262" mask="url(#path-381-inside-190_293_73)"/>
<mask id="path-383-inside-191_293_73" fill="white">
<path d="M710.152 566.289H762.712V618.848H710.152V566.289Z"/>
</mask>
<path d="M762.712 618.848V619.396H763.259V618.848H762.712ZM762.712 566.289H762.164V618.848H762.712H763.259V566.289H762.712ZM762.712 618.848V618.301H710.152V618.848V619.396H762.712V618.848Z" fill="#BA6262" mask="url(#path-383-inside-191_293_73)"/>
<mask id="path-385-inside-192_293_73" fill="white">
<path d="M762.711 566.289H815.271V618.848H762.711V566.289Z"/>
</mask>
<path d="M815.271 618.848V619.396H815.818V618.848H815.271ZM815.271 566.289H814.723V618.848H815.271H815.818V566.289H815.271ZM815.271 618.848V618.301H762.711V618.848V619.396H815.271V618.848Z" fill="#BA6262" mask="url(#path-385-inside-192_293_73)"/>
<mask id="path-387-inside-193_293_73" fill="white">
<path d="M-25.6779 618.848H26.8814V671.408H-25.6779V618.848Z"/>
</mask>
<path d="M26.8814 671.408V671.955H27.4289V671.408H26.8814ZM26.8814 618.848H26.3339V671.408H26.8814H27.4289V618.848H26.8814ZM26.8814 671.408V670.86H-25.6779V671.408V671.955H26.8814V671.408Z" fill="#BA6262" mask="url(#path-387-inside-193_293_73)"/>
<mask id="path-389-inside-194_293_73" fill="white">
<path d="M26.8814 618.848H79.4407V671.408H26.8814V618.848Z"/>
</mask>
<path d="M79.4407 671.408V671.955H79.9882V671.408H79.4407ZM79.4407 618.848H78.8932V671.408H79.4407H79.9882V618.848H79.4407ZM79.4407 671.408V670.86H26.8814V671.408V671.955H79.4407V671.408Z" fill="#BA6262" mask="url(#path-389-inside-194_293_73)"/>
<mask id="path-391-inside-195_293_73" fill="white">
<path d="M79.4407 618.848H132V671.408H79.4407V618.848Z"/>
</mask>
<path d="M132 671.408V671.955H132.548V671.408H132ZM132 618.848H131.453V671.408H132H132.548V618.848H132ZM132 671.408V670.86H79.4407V671.408V671.955H132V671.408Z" fill="#BA6262" mask="url(#path-391-inside-195_293_73)"/>
<mask id="path-393-inside-196_293_73" fill="white">
<path d="M132 618.848H184.559V671.408H132V618.848Z"/>
</mask>
<path d="M184.559 671.408V671.955H185.107V671.408H184.559ZM184.559 618.848H184.012V671.408H184.559H185.107V618.848H184.559ZM184.559 671.408V670.86H132V671.408V671.955H184.559V671.408Z" fill="#BA6262" mask="url(#path-393-inside-196_293_73)"/>
<mask id="path-395-inside-197_293_73" fill="white">
<path d="M184.559 618.848H237.119V671.408H184.559V618.848Z"/>
</mask>
<path d="M237.119 671.408V671.955H237.666V671.408H237.119ZM237.119 618.848H236.571V671.408H237.119H237.666V618.848H237.119ZM237.119 671.408V670.86H184.559V671.408V671.955H237.119V671.408Z" fill="#BA6262" mask="url(#path-395-inside-197_293_73)"/>
<mask id="path-397-inside-198_293_73" fill="white">
<path d="M237.119 618.848H289.678V671.408H237.119V618.848Z"/>
</mask>
<path d="M289.678 671.408V671.955H290.225V671.408H289.678ZM289.678 618.848H289.13V671.408H289.678H290.225V618.848H289.678ZM289.678 671.408V670.86H237.119V671.408V671.955H289.678V671.408Z" fill="#BA6262" mask="url(#path-397-inside-198_293_73)"/>
<mask id="path-399-inside-199_293_73" fill="white">
<path d="M289.678 618.848H342.237V671.408H289.678V618.848Z"/>
</mask>
<path d="M289.678 618.848H342.237V671.408H289.678V618.848Z" fill="white" fill-opacity="0.09"/>
<path d="M342.237 671.408V671.955H342.785V671.408H342.237ZM342.237 618.848H341.69V671.408H342.237H342.785V618.848H342.237ZM342.237 671.408V670.86H289.678V671.408V671.955H342.237V671.408Z" fill="#BA6262" mask="url(#path-399-inside-199_293_73)"/>
<mask id="path-401-inside-200_293_73" fill="white">
<path d="M342.237 618.848H394.796V671.408H342.237V618.848Z"/>
</mask>
<path d="M394.796 671.408V671.955H395.344V671.408H394.796ZM394.796 618.848H394.249V671.408H394.796H395.344V618.848H394.796ZM394.796 671.408V670.86H342.237V671.408V671.955H394.796V671.408Z" fill="#BA6262" mask="url(#path-401-inside-200_293_73)"/>
<mask id="path-403-inside-201_293_73" fill="white">
<path d="M394.796 618.848H447.356V671.408H394.796V618.848Z"/>
</mask>
<path d="M447.356 671.408V671.955H447.903V671.408H447.356ZM447.356 618.848H446.808V671.408H447.356H447.903V618.848H447.356ZM447.356 671.408V670.86H394.796V671.408V671.955H447.356V671.408Z" fill="#BA6262" mask="url(#path-403-inside-201_293_73)"/>
<mask id="path-405-inside-202_293_73" fill="white">
<path d="M447.356 618.848H499.915V671.408H447.356V618.848Z"/>
</mask>
<path d="M499.915 671.408V671.955H500.463V671.408H499.915ZM499.915 618.848H499.368V671.408H499.915H500.463V618.848H499.915ZM499.915 671.408V670.86H447.356V671.408V671.955H499.915V671.408Z" fill="#BA6262" mask="url(#path-405-inside-202_293_73)"/>
<mask id="path-407-inside-203_293_73" fill="white">
<path d="M499.915 618.848H552.474V671.408H499.915V618.848Z"/>
</mask>
<path d="M552.474 671.408V671.955H553.022V671.408H552.474ZM552.474 618.848H551.927V671.408H552.474H553.022V618.848H552.474ZM552.474 671.408V670.86H499.915V671.408V671.955H552.474V671.408Z" fill="#BA6262" mask="url(#path-407-inside-203_293_73)"/>
<mask id="path-409-inside-204_293_73" fill="white">
<path d="M552.474 618.848H605.034V671.408H552.474V618.848Z"/>
</mask>
<path d="M605.034 671.408V671.955H605.581V671.408H605.034ZM605.034 618.848H604.486V671.408H605.034H605.581V618.848H605.034ZM605.034 671.408V670.86H552.474V671.408V671.955H605.034V671.408Z" fill="#BA6262" mask="url(#path-409-inside-204_293_73)"/>
<mask id="path-411-inside-205_293_73" fill="white">
<path d="M605.034 618.848H657.593V671.408H605.034V618.848Z"/>
</mask>
<path d="M657.593 671.408V671.955H658.14V671.408H657.593ZM657.593 618.848H657.045V671.408H657.593H658.14V618.848H657.593ZM657.593 671.408V670.86H605.034V671.408V671.955H657.593V671.408Z" fill="#BA6262" mask="url(#path-411-inside-205_293_73)"/>
<mask id="path-413-inside-206_293_73" fill="white">
<path d="M657.593 618.848H710.152V671.408H657.593V618.848Z"/>
</mask>
<path d="M710.152 671.408V671.955H710.7V671.408H710.152ZM710.152 618.848H709.605V671.408H710.152H710.7V618.848H710.152ZM710.152 671.408V670.86H657.593V671.408V671.955H710.152V671.408Z" fill="#BA6262" mask="url(#path-413-inside-206_293_73)"/>
<mask id="path-415-inside-207_293_73" fill="white">
<path d="M710.152 618.848H762.712V671.408H710.152V618.848Z"/>
</mask>
<path d="M762.712 671.408V671.955H763.259V671.408H762.712ZM762.712 618.848H762.164V671.408H762.712H763.259V618.848H762.712ZM762.712 671.408V670.86H710.152V671.408V671.955H762.712V671.408Z" fill="#BA6262" mask="url(#path-415-inside-207_293_73)"/>
<mask id="path-417-inside-208_293_73" fill="white">
<path d="M762.711 618.848H815.271V671.408H762.711V618.848Z"/>
</mask>
<path d="M815.271 671.408V671.955H815.818V671.408H815.271ZM815.271 618.848H814.723V671.408H815.271H815.818V618.848H815.271ZM815.271 671.408V670.86H762.711V671.408V671.955H815.271V671.408Z" fill="#BA6262" mask="url(#path-417-inside-208_293_73)"/>
<mask id="path-419-inside-209_293_73" fill="white">
<path d="M-25.6779 671.408H26.8814V723.967H-25.6779V671.408Z"/>
</mask>
<path d="M26.8814 723.967V724.514H27.4289V723.967H26.8814ZM26.8814 671.408H26.3339V723.967H26.8814H27.4289V671.408H26.8814ZM26.8814 723.967V723.42H-25.6779V723.967V724.514H26.8814V723.967Z" fill="#BA6262" mask="url(#path-419-inside-209_293_73)"/>
<mask id="path-421-inside-210_293_73" fill="white">
<path d="M26.8814 671.408H79.4407V723.967H26.8814V671.408Z"/>
</mask>
<path d="M79.4407 723.967V724.514H79.9882V723.967H79.4407ZM79.4407 671.408H78.8932V723.967H79.4407H79.9882V671.408H79.4407ZM79.4407 723.967V723.42H26.8814V723.967V724.514H79.4407V723.967Z" fill="#BA6262" mask="url(#path-421-inside-210_293_73)"/>
<mask id="path-423-inside-211_293_73" fill="white">
<path d="M79.4407 671.408H132V723.967H79.4407V671.408Z"/>
</mask>
<path d="M132 723.967V724.514H132.548V723.967H132ZM132 671.408H131.453V723.967H132H132.548V671.408H132ZM132 723.967V723.42H79.4407V723.967V724.514H132V723.967Z" fill="#BA6262" mask="url(#path-423-inside-211_293_73)"/>
<mask id="path-425-inside-212_293_73" fill="white">
<path d="M132 671.408H184.559V723.967H132V671.408Z"/>
</mask>
<path d="M132 671.408H184.559V723.967H132V671.408Z" fill="white" fill-opacity="0.09"/>
<path d="M184.559 723.967V724.514H185.107V723.967H184.559ZM184.559 671.408H184.012V723.967H184.559H185.107V671.408H184.559ZM184.559 723.967V723.42H132V723.967V724.514H184.559V723.967Z" fill="#BA6262" mask="url(#path-425-inside-212_293_73)"/>
<mask id="path-427-inside-213_293_73" fill="white">
<path d="M184.559 671.408H237.119V723.967H184.559V671.408Z"/>
</mask>
<path d="M237.119 723.967V724.514H237.666V723.967H237.119ZM237.119 671.408H236.571V723.967H237.119H237.666V671.408H237.119ZM237.119 723.967V723.42H184.559V723.967V724.514H237.119V723.967Z" fill="#BA6262" mask="url(#path-427-inside-213_293_73)"/>
<mask id="path-429-inside-214_293_73" fill="white">
<path d="M237.119 671.408H289.678V723.967H237.119V671.408Z"/>
</mask>
<path d="M289.678 723.967V724.514H290.225V723.967H289.678ZM289.678 671.408H289.13V723.967H289.678H290.225V671.408H289.678ZM289.678 723.967V723.42H237.119V723.967V724.514H289.678V723.967Z" fill="#BA6262" mask="url(#path-429-inside-214_293_73)"/>
<mask id="path-431-inside-215_293_73" fill="white">
<path d="M289.678 671.408H342.237V723.967H289.678V671.408Z"/>
</mask>
<path d="M342.237 723.967V724.514H342.785V723.967H342.237ZM342.237 671.408H341.69V723.967H342.237H342.785V671.408H342.237ZM342.237 723.967V723.42H289.678V723.967V724.514H342.237V723.967Z" fill="#BA6262" mask="url(#path-431-inside-215_293_73)"/>
<mask id="path-433-inside-216_293_73" fill="white">
<path d="M342.237 671.408H394.796V723.967H342.237V671.408Z"/>
</mask>
<path d="M394.796 723.967V724.514H395.344V723.967H394.796ZM394.796 671.408H394.249V723.967H394.796H395.344V671.408H394.796ZM394.796 723.967V723.42H342.237V723.967V724.514H394.796V723.967Z" fill="#BA6262" mask="url(#path-433-inside-216_293_73)"/>
<mask id="path-435-inside-217_293_73" fill="white">
<path d="M394.796 671.408H447.356V723.967H394.796V671.408Z"/>
</mask>
<path d="M447.356 723.967V724.514H447.903V723.967H447.356ZM447.356 671.408H446.808V723.967H447.356H447.903V671.408H447.356ZM447.356 723.967V723.42H394.796V723.967V724.514H447.356V723.967Z" fill="#BA6262" mask="url(#path-435-inside-217_293_73)"/>
<mask id="path-437-inside-218_293_73" fill="white">
<path d="M447.356 671.408H499.915V723.967H447.356V671.408Z"/>
</mask>
<path d="M447.356 671.408H499.915V723.967H447.356V671.408Z" fill="white" fill-opacity="0.09"/>
<path d="M499.915 723.967V724.514H500.463V723.967H499.915ZM499.915 671.408H499.368V723.967H499.915H500.463V671.408H499.915ZM499.915 723.967V723.42H447.356V723.967V724.514H499.915V723.967Z" fill="#BA6262" mask="url(#path-437-inside-218_293_73)"/>
<mask id="path-439-inside-219_293_73" fill="white">
<path d="M499.915 671.408H552.474V723.967H499.915V671.408Z"/>
</mask>
<path d="M552.474 723.967V724.514H553.022V723.967H552.474ZM552.474 671.408H551.927V723.967H552.474H553.022V671.408H552.474ZM552.474 723.967V723.42H499.915V723.967V724.514H552.474V723.967Z" fill="#BA6262" mask="url(#path-439-inside-219_293_73)"/>
<mask id="path-441-inside-220_293_73" fill="white">
<path d="M552.474 671.408H605.034V723.967H552.474V671.408Z"/>
</mask>
<path d="M605.034 723.967V724.514H605.581V723.967H605.034ZM605.034 671.408H604.486V723.967H605.034H605.581V671.408H605.034ZM605.034 723.967V723.42H552.474V723.967V724.514H605.034V723.967Z" fill="#BA6262" mask="url(#path-441-inside-220_293_73)"/>
<mask id="path-443-inside-221_293_73" fill="white">
<path d="M605.034 671.408H657.593V723.967H605.034V671.408Z"/>
</mask>
<path d="M657.593 723.967V724.514H658.14V723.967H657.593ZM657.593 671.408H657.045V723.967H657.593H658.14V671.408H657.593ZM657.593 723.967V723.42H605.034V723.967V724.514H657.593V723.967Z" fill="#BA6262" mask="url(#path-443-inside-221_293_73)"/>
<mask id="path-445-inside-222_293_73" fill="white">
<path d="M657.593 671.408H710.152V723.967H657.593V671.408Z"/>
</mask>
<path d="M710.152 723.967V724.514H710.7V723.967H710.152ZM710.152 671.408H709.605V723.967H710.152H710.7V671.408H710.152ZM710.152 723.967V723.42H657.593V723.967V724.514H710.152V723.967Z" fill="#BA6262" mask="url(#path-445-inside-222_293_73)"/>
<mask id="path-447-inside-223_293_73" fill="white">
<path d="M710.152 671.408H762.712V723.967H710.152V671.408Z"/>
</mask>
<path d="M762.712 723.967V724.514H763.259V723.967H762.712ZM762.712 671.408H762.164V723.967H762.712H763.259V671.408H762.712ZM762.712 723.967V723.42H710.152V723.967V724.514H762.712V723.967Z" fill="#BA6262" mask="url(#path-447-inside-223_293_73)"/>
<mask id="path-449-inside-224_293_73" fill="white">
<path d="M762.711 671.408H815.271V723.967H762.711V671.408Z"/>
</mask>
<path d="M815.271 723.967V724.514H815.818V723.967H815.271ZM815.271 671.408H814.723V723.967H815.271H815.818V671.408H815.271ZM815.271 723.967V723.42H762.711V723.967V724.514H815.271V723.967Z" fill="#BA6262" mask="url(#path-449-inside-224_293_73)"/>
</g>
<rect x="-130.523" y="-11.5894" width="1050.64" height="787.842" stroke="#BA6262" stroke-width="0.547493"/>
<defs>
<clipPath id="clip0_293_73">
<rect x="-130.796" y="-11.8631" width="1051.19" height="788.389" fill="white"/>
</clipPath>
</defs>
</svg>
