<svg width="37" height="37" viewBox="0 0 37 37" fill="none" xmlns="http://www.w3.org/2000/svg">
<path fill-rule="evenodd" clip-rule="evenodd" d="M0 34.6387C0 35.7005 0.860625 36.5625 1.92375 36.5625H9.62156C10.6847 36.5625 11.5453 35.7005 11.5453 34.6387V30.6464C11.5453 29.5847 12.4073 28.7227 13.4705 28.7227H14.5758C15.6375 28.7227 16.4995 27.8606 16.4995 26.7975V21.9881C16.4995 20.925 15.6375 20.063 14.5758 20.063H9.765C8.70187 20.063 7.83984 20.925 7.83984 21.9867V23.092C7.83984 24.1552 6.97781 25.0172 5.91609 25.0172H1.92375C0.862031 25.0172 0 25.8778 0 26.9409V34.6387ZM11.5453 6.87656C11.5453 7.93969 12.4073 8.80031 13.4705 8.80031H14.5758C15.6375 8.80031 16.4995 9.66234 16.4995 10.7255V14.5744C16.4995 15.6361 15.6375 16.4981 14.5758 16.4981H10.7269C10.4741 16.4983 10.2238 16.4487 9.99026 16.3521C9.75669 16.2555 9.54445 16.1138 9.36567 15.9352C9.18688 15.7565 9.04506 15.5444 8.94829 15.3109C8.85152 15.0774 8.80172 14.8271 8.80172 14.5744V13.4691C8.80172 12.4059 7.94109 11.5453 6.87797 11.5453H1.92375C1.41354 11.5453 0.924226 11.3426 0.563453 10.9819C0.20268 10.6211 0 10.1318 0 9.62156V1.92656C0 0.862031 0.860625 0 1.92375 0H9.62156C10.6847 0 11.5453 0.862031 11.5453 1.92516V6.87656ZM27.7594 13.4691C27.7594 12.4059 28.6214 11.5453 29.6845 11.5453H34.6387C35.7005 11.5453 36.5625 10.6833 36.5625 9.62016V1.92656C36.5625 1.41609 36.3599 0.92649 35.9992 0.56527C35.6385 0.204051 35.1492 0.000745211 34.6387 0L26.9409 0C26.4305 0.000372469 25.941 0.20332 25.5801 0.564277C25.2191 0.925233 25.0162 1.41469 25.0158 1.92516V6.87656C25.0158 7.93969 24.1552 8.80031 23.092 8.80031H21.9867C20.925 8.80031 20.063 9.66234 20.063 10.7255V14.5744C20.063 15.6361 20.925 16.4981 21.9867 16.4981H25.8356C26.8988 16.4981 27.7608 15.6361 27.7608 14.5744L27.7594 13.4691ZM36.5625 34.6373C36.5625 35.6991 35.7005 36.5611 34.6373 36.5611H26.9409C26.6882 36.5613 26.4379 36.5117 26.2043 36.4151C25.9708 36.3185 25.7585 36.1768 25.5797 35.9981C25.4009 35.8195 25.2591 35.6073 25.1624 35.3739C25.0656 35.1404 25.0158 34.8901 25.0158 34.6373V29.6831C25.0158 28.6214 24.1537 27.7594 23.092 27.7594H21.9867C21.734 27.7594 21.4837 27.7096 21.2502 27.6128C21.0167 27.516 20.8046 27.3742 20.6259 27.1954C20.4473 27.0166 20.3056 26.8044 20.209 26.5708C20.1124 26.3373 20.0628 26.087 20.063 25.8342V21.9867C20.063 20.9236 20.925 20.0616 21.9867 20.0616H25.8356C26.3461 20.0619 26.8355 20.2649 27.1965 20.6258C27.5575 20.9868 27.7604 21.4762 27.7608 21.9867V23.0906C27.7608 24.1537 28.6214 25.0158 29.6845 25.0158H34.6373C35.7005 25.0158 36.5625 25.8764 36.5625 26.9395V34.6373Z" fill="url(#paint0_linear_1_7686)"/>
<defs>
<linearGradient id="paint0_linear_1_7686" x1="4.29413" y1="12.4772" x2="21.4772" y2="14.1911" gradientUnits="userSpaceOnUse">
<stop stop-color="#3539DD"/>
<stop offset="1" stop-color="#9011C7"/>
</linearGradient>
</defs>
</svg>
